<svg width="179" height="179" viewBox="0 0 179 179" fill="none" xmlns="http://www.w3.org/2000/svg">
<rect y="89.3811" width="126" height="126" rx="19" transform="rotate(-45.184 0 89.3811)" fill="#001893"/>
<path d="M115.036 100.783L105.917 99.7423C103.727 99.491 101.573 100.245 100.03 101.789L93.4239 108.394C83.2642 103.225 74.9354 94.9317 69.7658 84.7361L76.4073 78.0946C77.951 76.5509 78.7049 74.3969 78.4536 72.207L77.4125 63.1602C76.9817 59.5343 73.9302 56.8059 70.2684 56.8059H64.0577C60.001 56.8059 56.6264 60.1805 56.8777 64.2372C58.7804 94.8958 83.3001 119.38 113.923 121.282C117.98 121.534 121.354 118.159 121.354 114.102V107.892C121.39 104.266 118.662 101.214 115.036 100.783Z" fill="white"/>
</svg>
