<svg width="179" height="179" viewBox="0 0 179 179" fill="none" xmlns="http://www.w3.org/2000/svg">
<rect y="89.3811" width="126" height="126" rx="19" transform="rotate(-45.184 0 89.3811)" fill="#001893"/>
<path d="M89.08 53.18C75.1867 53.18 63.95 64.4167 63.95 78.31C63.95 97.1575 89.08 124.98 89.08 124.98C89.08 124.98 114.21 97.1575 114.21 78.31C114.21 64.4167 102.973 53.18 89.08 53.18ZM89.08 87.285C84.1258 87.285 80.105 83.2642 80.105 78.31C80.105 73.3558 84.1258 69.335 89.08 69.335C94.0342 69.335 98.055 73.3558 98.055 78.31C98.055 83.2642 94.0342 87.285 89.08 87.285Z" fill="white"/>
</svg>
