<svg width="220" height="140" viewBox="0 0 220 140" fill="none" xmlns="http://www.w3.org/2000/svg">
<path d="M123 26.79C117.64 24.79 112.25 24.5 106.35 24.49C104.27 24.49 103.46 24.49 103.11 24.49C103.113 24.4367 103.113 24.3833 103.11 24.33C103.2 24.23 103.03 24.12 102.91 23.98C102.79 23.84 102.51 23.87 102.49 23.52C102.47 23.17 102.05 23.6 101.98 23.7C101.939 23.8212 101.866 23.9294 101.769 24.0137C101.673 24.0979 101.556 24.1553 101.43 24.18L101.28 24.23C101.28 24.23 101.46 24.13 101.28 24.06C101.1 23.99 101.18 23.95 101.03 23.98C100.88 24.01 100.97 24.13 100.89 24.13C100.81 24.13 100.72 23.98 100.65 23.98C100.58 23.98 100.41 23.8 100.25 24.17C100.09 24.54 100.08 24.36 100.13 24.17C100.18 23.9697 100.18 23.7603 100.13 23.56C100.13 23.32 100.01 23.39 99.92 23.46C99.83 23.53 99.92 23.67 99.68 23.8C99.44 23.93 99.51 23.71 99.61 24.08C99.71 24.45 99.48 24.21 99.33 24.26C99.18 24.31 99.16 24.26 99.09 24.4C99.02 24.54 99.02 24.26 98.87 24.54C98.72 24.82 98.72 24.54 98.58 24.75C98.44 24.96 98.52 25.18 98.29 25.2C98.06 25.22 98.07 25.01 98.12 24.75C98.1306 24.7192 98.1346 24.6864 98.1316 24.654C98.1286 24.6215 98.1187 24.59 98.1027 24.5617C98.0866 24.5333 98.0647 24.5087 98.0383 24.4894C98.012 24.4702 97.9819 24.4567 97.95 24.45C97.88 24.4 97.85 24.7 97.67 24.81C97.49 24.92 97.59 24.6 97.58 24.5C97.57 24.4 97.36 24.4 97.36 24.62C97.358 24.8578 97.3379 25.0952 97.3 25.33C97.3 25.71 97.15 25.41 96.61 25.19C96.07 24.97 96.2 25.24 95.98 25.19C95.8985 25.1753 95.8259 25.1296 95.7774 25.0624C95.7289 24.9953 95.7083 24.912 95.72 24.83C95.72 24.7 95.97 24.6 96.02 24.48C96.07 24.36 95.89 24.16 95.74 24.2C95.59 24.24 95.53 23.83 95.47 23.79C95.41 23.75 95.17 24.01 95.13 24.13C95.09 24.25 95.13 24.2 95.03 24.28C94.93 24.36 94.85 24.28 94.9 24.48C94.9125 24.5297 94.9136 24.5817 94.9032 24.6319C94.8928 24.6821 94.8712 24.7293 94.84 24.77C94.84 24.77 95.35 24.54 95.2 24.77C95.05 25 94.93 25.03 94.73 24.97C94.53 24.91 94.41 24.84 94.32 24.97C94.23 25.1 94.39 25.27 94.21 25.35C94.03 25.43 93.84 25.5 93.76 25.35C93.68 25.2 93.76 25.07 93.53 25.04C93.3 25.01 93.18 25.04 93.3 24.76C93.42 24.48 93.75 24.38 93.48 24.33C93.21 24.28 93.25 24.15 93.24 24.12C93.24 23.9 93.01 24.17 92.89 24.12C92.77 24.07 92.89 23.85 92.59 23.99C92.29 24.13 92.23 24.12 92.33 24.28C92.43 24.44 92.42 24.58 92.16 24.64C91.9 24.7 91.97 24.86 92.16 24.94C92.35 25.02 92.48 25.04 92.35 25.12C92.2959 25.1743 92.2293 25.2145 92.1561 25.2371C92.0829 25.2598 92.0053 25.2642 91.93 25.25C91.8 25.25 91.71 24.81 91.48 24.92C91.25 25.03 91.24 25.11 91.17 25.02C91.1 24.93 91.1 24.83 90.91 24.73C90.72 24.63 90.8 24.67 90.58 24.79C90.36 24.91 90.48 25.23 90.24 25.33C90.16 25.33 90.24 25.56 90.01 25.54C89.78 25.52 90.01 25.33 89.86 25.28C89.71 25.23 89.75 24.83 89.53 25.07C89.31 25.31 89.53 25.6 89.31 25.51C89.09 25.42 89.19 25.82 89.13 25.85C89.07 25.88 89.05 25.24 88.79 25.65C88.66 25.82 88.46 25.89 88.56 26.02C88.66 26.15 88.62 26.33 88.36 26.31C88.1 26.29 88.07 25.6 87.79 25.65C87.51 25.7 87.42 25.81 87.43 25.54C87.44 25.27 87.43 25.54 87.22 25.48C87.01 25.42 87.11 25.22 86.85 25.23C86.6936 25.242 86.5364 25.242 86.38 25.23C86.19 25.23 85.98 25.11 86.12 25.33C86.1989 25.4447 86.2627 25.5691 86.31 25.7C86.38 25.95 86.43 25.85 86.38 25.95C86.33 26.05 86.38 26.23 86.31 26.31C86.24 26.39 86.24 26.13 85.98 26.31C85.72 26.49 85.69 26.45 85.67 26.57C85.65 26.69 85.74 26.79 85.87 26.76C86 26.73 85.96 26.76 85.97 26.87C85.98 26.98 85.89 27.1 86.08 27.04C86.1473 27.0344 86.2107 27.0062 86.26 26.96C86.2683 26.9534 86.275 26.9451 86.2797 26.9356C86.2843 26.926 86.2867 26.9156 86.2867 26.905C86.2867 26.8944 86.2843 26.884 86.2797 26.8744C86.275 26.8649 86.2683 26.8566 86.26 26.85C86.26 26.85 86.26 26.72 86.26 26.76C86.26 26.8 86.33 26.76 86.39 26.76C86.45 26.76 86.5 26.76 86.53 26.76H86.47C86.47 26.76 86.47 26.84 86.47 26.85C86.47 26.86 86.7 27.08 86.47 27.1C86.24 27.12 86.4 27.04 86.11 27.1C85.82 27.16 85.77 27.1 85.72 27.28C85.67 27.46 85.82 27.52 85.65 27.54C85.48 27.56 85.51 27.54 85.49 27.54C85.47 27.54 85.49 27.67 85.64 27.67C85.79 27.67 85.71 27.54 85.92 27.67C85.92 27.67 85.92 27.75 85.97 27.75C86.02 27.75 85.97 27.98 85.84 28.1C85.71 28.22 85.4 27.96 85.33 28.28C85.26 28.6 84.52 28.67 84.71 28.9C84.9 29.13 84.94 28.67 85.11 28.71C85.28 28.75 85.11 28.95 85.11 29.12C85.11 29.29 85.28 29.12 85.53 29.02C85.78 28.92 85.9 29.15 85.96 29.42C86.02 29.69 85.7 29.69 85.4 29.66C85.1 29.63 85.31 29.4 85.16 29.48C85.01 29.56 85.03 29.9 84.84 30.06C84.65 30.22 84.49 30.28 84.44 30.51C84.39 30.74 84.73 30.76 84.87 30.43C85.01 30.1 85.23 30.35 85.23 30.35L85.06 30.88L85.78 31.02L86.28 31.3L86.42 31.58C86.42 31.58 85.69 31.43 85.57 31.43C85.3109 31.4781 85.0589 31.5587 84.82 31.67C84.73 31.73 84.38 31.67 84.32 31.67C84.26 31.67 84.04 31.94 83.94 32.02C83.8497 32.0955 83.7438 32.1501 83.63 32.18L83.91 32.27V32.52L84.32 32.46L84.16 32.74C84.2268 32.8481 84.2615 32.9729 84.26 33.1C84.26 33.26 84.45 33.49 84.48 33.62C84.51 33.75 84.26 33.62 84.13 33.71C84 33.8 83.7 33.54 83.59 33.41C83.48 33.28 83.52 32.94 83.38 32.91C83.24 32.88 83.12 32.48 83.17 32.27C83.22 32.06 83.7 31.43 83.61 31.52C83.52 31.61 83.15 31.6 83.15 31.6C83.15 31.6 83.04 31.17 82.91 31.1C82.78 31.03 82.67 31.36 82.65 31.46C82.63 31.56 82.44 31.08 82.35 31.2C82.2988 31.3114 82.2723 31.4325 82.2723 31.555C82.2723 31.6775 82.2988 31.7987 82.35 31.91C82.4631 32.134 82.5278 32.3793 82.54 32.63C82.54 32.8 82.37 32.96 82.23 32.91C82.09 32.86 82.08 32.27 82.08 32.32C82.08 32.37 81.86 32.72 81.86 32.72H81.43L81.62 33.11C81.62 33.11 80.74 33.35 80.74 33.45C80.74 33.55 81.36 33.45 81.32 33.62C81.28 33.79 81.1 33.88 81.18 33.98C81.1993 34.0536 81.1942 34.1314 81.1653 34.2018C81.1364 34.2722 81.0854 34.3312 81.02 34.37C80.9185 34.4297 80.8355 34.5162 80.78 34.62L80.42 34.73L80.63 35.09L80.07 35.71C80.07 35.71 80.42 35.71 80.49 35.87C80.56 36.03 80.24 36.32 80.26 36.44C80.28 36.56 80.66 36.27 80.74 36.35C80.82 36.43 80.67 36.57 80.63 36.7C80.59 36.83 80.82 36.76 80.94 36.81C81.06 36.86 80.6 37.11 80.65 37.21C80.7 37.31 80.92 37.21 80.89 37.4C80.86 37.59 81.1 37.5 81.23 37.54C81.36 37.58 81.1 37.87 80.94 37.99C80.78 38.11 80.94 38.42 80.82 38.51C80.7 38.6 80.52 38.51 80.33 38.59C80.14 38.67 80.19 38.88 80.12 39.01C80.05 39.14 79.85 39.01 79.85 39.22C79.85 39.43 80.19 39.3 80.28 39.29C80.37 39.28 80.43 39.61 80.28 39.71C80.1118 39.8038 79.9513 39.9108 79.8 40.03C79.7 40.16 79.8 40.36 79.72 40.42C79.64 40.48 79.47 40.7 79.53 40.78C79.5974 40.8273 79.6777 40.8527 79.76 40.8527C79.8423 40.8527 79.9226 40.8273 79.99 40.78C80.1765 40.6835 80.3806 40.6257 80.59 40.61C80.72 40.61 80.73 40.85 80.59 41C80.5611 41.0179 80.5372 41.043 80.5206 41.0727C80.5041 41.1025 80.4954 41.1359 80.4954 41.17C80.4954 41.204 80.5041 41.2375 80.5206 41.2673C80.5372 41.297 80.5611 41.3221 80.59 41.34C80.69 41.34 81.05 41.25 81.08 41.08C81.11 40.91 81.31 40.49 81.39 40.48C81.47 40.47 81.61 40.6 81.56 40.7C81.51 40.8 81.37 40.93 81.49 41.01C81.61 41.09 81.4 41.23 81.3 41.33C81.2 41.43 81.59 41.55 81.59 41.66C81.59 41.77 81.37 41.78 81.27 41.91C81.17 42.04 81.08 42.27 80.9 42.22C80.72 42.17 80.59 41.91 80.46 41.93C80.33 41.95 80.2 41.41 80.09 41.46C79.98 41.51 80.09 42.05 80.09 42.19C80.09 42.33 79.82 42.05 79.7 42.02C79.58 41.99 79.41 41.57 79.35 41.66C79.2788 41.83 79.2284 42.0079 79.2 42.19L78.95 42.3L78.84 42.52L79.02 42.68L79.48 42.52C79.48 42.52 79.43 42.63 79.48 42.68C79.53 42.73 79.48 42.88 79.39 42.98C79.3 43.08 79.51 43.09 79.54 43.18C79.57 43.27 79.48 43.38 79.54 43.4C79.6 43.42 79.87 43.24 79.91 43.19C79.95 43.14 80.26 43.06 80.26 43.06C80.26 43.06 80.48 42.95 80.48 42.98C80.48 43.01 80.41 43.26 80.41 43.26L80.28 43.53C80.28 43.61 80.38 43.61 80.36 43.67C80.34 43.73 80.14 43.74 80.09 43.82C80.04 43.9 80.22 43.92 80.18 43.94C80.14 43.96 79.99 44.05 80.01 44.13C80.03 44.21 80.17 44.13 80.24 44.13C80.2891 44.1506 80.3418 44.1613 80.395 44.1613C80.4482 44.1613 80.5009 44.1506 80.55 44.13C80.61 44.13 80.7 43.93 80.68 43.88C80.66 43.83 80.77 43.77 80.83 43.76C80.8698 43.7549 80.9082 43.7416 80.9426 43.721C80.977 43.7003 81.0068 43.6728 81.03 43.64L81.23 43.28L81.32 43.45C81.328 43.5293 81.3482 43.6069 81.38 43.68C81.38 43.68 81.45 43.85 81.38 43.91C81.31 43.97 81.44 44.01 81.48 44.1C81.52 44.19 81.39 44.19 81.34 44.24C81.29 44.29 81.34 44.39 81.34 44.45C81.34 44.51 81.21 44.6 81.26 44.62C81.3037 44.6251 81.3481 44.6185 81.3884 44.6009C81.4288 44.5834 81.4639 44.5555 81.49 44.52L81.8 44.18C81.8 44.18 81.8 44.37 81.8 44.45C81.8 44.53 81.91 44.58 81.97 44.64C81.9955 44.7451 81.9955 44.8549 81.97 44.96C81.97 44.96 82.06 44.63 82.11 44.67C82.16 44.71 82.3 44.67 82.38 44.67H82.51C82.51 44.67 82.57 44.67 82.51 44.74C82.45 44.81 82.51 44.74 82.51 44.83C82.5198 44.8838 82.5148 44.9392 82.4954 44.9903C82.476 45.0414 82.443 45.0863 82.4 45.12C82.332 45.2149 82.2875 45.3246 82.27 45.44C82.27 45.55 82.27 45.68 82.17 45.68C82.07 45.68 81.94 45.75 81.84 45.76C81.74 45.77 81.65 45.62 81.58 45.47V45.29H81.39L81.25 45.12V45.33H81.14L81.04 45.42L80.82 45.32L80.73 45.15H80.61C80.5717 45.2473 80.5248 45.341 80.47 45.43C80.4 45.43 80.33 45.31 80.25 45.36C80.169 45.4291 80.0665 45.468 79.96 45.47C79.89 45.47 79.74 45.47 79.81 45.61C79.88 45.75 79.74 45.8 79.74 45.92C79.743 45.9778 79.7241 46.0347 79.687 46.0792C79.6499 46.1237 79.5974 46.1525 79.54 46.16C79.47 46.16 79.39 45.97 79.43 45.77L79.31 45.68V45.59H79.02V45.47L78.53 45.25V44.99V44.69L78.68 44.58L78.51 44.32V44.2L78.63 43.99L78.85 44C78.7171 43.9844 78.5829 43.9844 78.45 44C78.34 44 78.2 43.87 78.24 43.79C78.28 43.71 78.24 43.53 78.14 43.44C78.04 43.35 78.04 43.14 77.99 43.17C77.94 43.2 77.89 43.24 77.89 43.35C77.89 43.46 77.67 43.57 77.65 43.68C77.6451 43.7141 77.648 43.7489 77.6584 43.7818C77.6687 43.8147 77.6864 43.8449 77.71 43.87C77.783 43.9204 77.836 43.9946 77.86 44.08H77.65V44.16L77.29 44.31L77.44 44.41L77.66 44.6H78.01L78.07 44.71L77.88 44.98L77.63 45.19C77.523 45.1893 77.4196 45.2285 77.34 45.3C77.3083 45.3529 77.2915 45.4133 77.2915 45.475C77.2915 45.5366 77.3083 45.5971 77.34 45.65C77.4 45.77 77.43 45.92 77.34 45.96C77.25 46 77.12 45.82 77.05 45.72C76.98 45.62 76.78 45.42 76.71 45.42C76.5634 45.3925 76.4279 45.323 76.32 45.22C76.26 45.15 76.1 44.95 76.04 45.03C75.98 45.11 76.04 45.15 76.04 45.24C75.9975 45.387 75.9975 45.543 76.04 45.69C76.04 45.85 76.04 45.88 76.04 45.88H75.8L75.61 45.47C75.61 45.47 75.49 45.55 75.49 45.63C75.49 45.71 75.35 45.73 75.38 45.87C75.41 46.01 75.32 46.13 75.27 46.25C75.22 46.37 75.07 46.48 75.06 46.6C75.05 46.72 74.94 46.83 74.83 46.7C74.72 46.57 74.76 46.55 74.83 46.41C74.9 46.27 74.83 46.2 74.83 46.2C74.69 46.03 74.83 45.97 74.72 45.84C74.61 45.71 74.65 45.71 74.54 45.84C74.43 45.97 74.4 46.1 74.26 45.99C74.12 45.88 74.14 45.9 74.04 45.87C73.94 45.84 73.87 45.8 73.81 45.58C73.75 45.36 73.81 45.29 73.75 45.12C73.69 44.95 73.63 44.88 73.59 45.12C73.55 45.36 73.59 45.4 73.51 45.55L73.2 45.98C73.1366 46.0519 73.1011 46.1442 73.1 46.24C73.1 46.36 73.32 46.4 73.23 46.5C73.14 46.6 73 46.71 72.96 46.84C72.92 46.97 72.76 47.06 72.83 47.18C72.8597 47.2161 72.8986 47.2435 72.9426 47.2593C72.9866 47.2752 73.0341 47.2789 73.08 47.27C73.006 47.3576 72.9515 47.4598 72.92 47.57C72.8844 47.6599 72.8844 47.7601 72.92 47.85C72.92 47.85 73.42 47.61 73.32 47.85C73.2307 48.0136 73.112 48.1593 72.97 48.28C72.89 48.33 72.67 48.5 72.82 48.5C72.9215 48.5043 73.0206 48.5317 73.11 48.58C73.11 48.58 73.39 48.71 73.42 48.53C73.45 48.35 73.57 48.17 73.69 48.2C73.81 48.23 73.81 48.2 73.78 48.4C73.7653 48.5363 73.7653 48.6737 73.78 48.81C73.8242 48.7997 73.8703 48.8007 73.914 48.813C73.9577 48.8252 73.9976 48.8483 74.03 48.88C74.15 48.98 74.19 48.98 74.24 48.88C74.29 48.78 74.24 48.88 74.5 48.69C74.76 48.5 74.7 48.41 74.68 48.34C74.66 48.27 74.53 48.05 74.77 48.21C75.01 48.37 74.99 48.34 75.12 48.3C75.25 48.26 75.41 48.3 75.27 48.41C75.13 48.52 75.05 48.52 75.02 48.69C74.99 48.86 75.08 48.89 75.02 49.02C74.96 49.15 74.85 49.18 75.02 49.26C75.19 49.34 75.2 49.51 75.38 49.46C75.56 49.41 75.81 49.32 75.67 49.54C75.53 49.76 75.67 50.04 75.42 50.06C75.17 50.08 75.09 50.16 74.96 49.85C74.83 49.54 74.87 50.19 74.68 50.08C74.49 49.97 74.68 49.78 74.35 49.75C74.02 49.72 74.11 49.65 73.88 49.75C73.65 49.85 73.47 49.95 73.76 49.95C74.05 49.95 74.08 50.08 73.93 50.14C73.78 50.2 73.27 50.32 73.44 50.46C73.61 50.6 73.79 50.25 73.9 50.4C74.01 50.55 74.05 50.67 73.9 50.81C73.75 50.95 73.84 50.92 73.77 50.97C73.7 51.02 73.39 51.11 73.65 51.14C73.91 51.17 73.88 51.07 74.05 51.14C74.1732 51.1878 74.3003 51.2246 74.43 51.25C74.58 51.25 74.73 51.35 74.62 51.5C74.51 51.65 74.49 51.67 74.62 51.82C74.75 51.97 74.62 52.03 74.62 52.11C74.62 52.19 74.46 52.44 74.62 52.38C74.78 52.32 74.62 52.38 74.62 52.47C74.566 52.498 74.5236 52.544 74.5 52.6V52.69C74.5 52.69 74.13 52.79 74.12 52.9C74.11 53.01 74.42 53.2 74.42 53.2L74.26 53.26L74.38 53.5H74.63C74.63 53.5 74.63 53.79 74.71 53.75C74.8945 53.7132 75.0752 53.6597 75.25 53.59L75.38 53.69V53.85C75.38 53.85 75.14 53.85 75.09 53.95C75.0508 54.0601 74.997 54.1643 74.93 54.26C74.81 54.35 74.85 54.67 74.85 54.67L74.66 54.87V55.11L74.42 55.27V55.41V55.7H74.63L74.76 55.54L74.88 55.31L75 55.43C75.0986 55.3061 75.2091 55.1923 75.33 55.09C75.4549 55.0292 75.5912 54.9952 75.73 54.99C75.73 55.04 75.62 55.15 75.6 55.27C75.58 55.39 75.4 55.45 75.4 55.45L75.32 55.73L75.04 55.79L75.23 56.03L75.15 56.11V56.23L75.04 56.4L75.19 56.53L75.64 56.39C75.76 56.46 75.64 56.81 75.54 57.02C75.44 57.23 75.54 57.27 75.75 57.22C75.96 57.17 75.94 57.3 76.01 57.4C76.08 57.5 76.13 57.72 76.23 57.67C76.33 57.62 76.31 57.43 76.49 57.46C76.67 57.49 76.49 57.46 76.64 57.22C76.79 56.98 76.75 57.22 76.88 57.16C77.01 57.1 76.97 57.08 77.1 56.86C77.23 56.64 77.2 56.86 77.37 56.92C77.54 56.98 77.45 56.99 77.74 56.92C78.03 56.85 77.74 56.77 77.64 56.61C77.54 56.45 77.96 56.54 77.87 56.37C77.78 56.2 77.68 56.28 77.33 56.24C76.98 56.2 77.33 56.1 77.45 56.08C77.57 56.06 77.62 55.97 77.84 55.85C78.06 55.73 78.09 55.97 78.4 55.97C78.71 55.97 78.4 55.85 78.79 55.51C79.18 55.17 78.93 55.44 79.14 55.27C79.35 55.1 79.22 55.27 79.21 55.39C79.2 55.51 79.21 55.8 79.14 55.88C79.07 55.96 79.09 55.95 79.05 56.17C79.0529 56.3194 79.0185 56.4672 78.95 56.6C78.85 56.86 78.69 57.26 78.76 57.17C78.8265 57.1419 78.8979 57.1275 78.97 57.1275C79.0421 57.1275 79.1135 57.1419 79.18 57.17C79.4 57.17 79.56 57.17 79.66 57.24C79.76 57.31 79.53 57.51 79.3 57.53C79.07 57.55 79.3 57.53 79.18 57.42C79.06 57.31 79.18 57.42 79.05 57.7C78.92 57.98 78.95 57.7 78.85 57.7C78.75 57.7 78.71 57.64 78.61 57.7C78.51 57.76 78.61 57.84 78.69 58.15C78.77 58.46 78.69 58.37 78.56 58.57C78.43 58.77 78.31 58.57 78.24 58.51C78.17 58.45 78.11 58.51 78.01 58.51C77.91 58.51 77.95 58.37 77.76 58.37C77.57 58.37 77.76 58.51 77.87 58.78C77.98 59.05 77.87 59.01 77.87 59.38C77.87 59.75 77.6 59.9 77.6 59.99C77.6 60.08 77.39 60.2 77.47 60.4C77.55 60.6 77.47 60.4 77.94 60.4C78.41 60.4 78.07 60.4 78.15 60.23C78.23 60.06 78.15 60.05 78.38 59.96C78.61 59.87 78.47 60.05 78.54 60.22C78.61 60.39 78.54 60.33 78.47 60.54C78.4 60.75 78.09 60.83 78.09 60.83C78.0452 60.9095 78.0083 60.9932 77.98 61.08C77.98 61.22 77.98 61.3 77.98 61.45C77.98 61.6 78.1 61.45 78.33 61.34C78.56 61.23 78.33 61.34 78.49 61.63C78.65 61.92 78.49 61.83 78.49 61.98C78.49 62.13 78.14 62.29 78.24 62.29H78.53C78.76 62.29 78.66 62.29 78.66 62.14C78.66 61.99 78.66 62.01 78.83 61.93C79 61.85 78.91 61.93 79.09 61.93C79.27 61.93 79.18 62.09 79.28 62.12C79.38 62.15 79.14 62.62 79.14 62.62C79.2788 62.5948 79.4053 62.5245 79.5 62.42C79.68 62.24 79.5 62.3 79.5 62.18C79.5 62.06 79.64 62.12 79.73 62.07C79.82 62.02 79.73 61.95 79.88 61.86C80.03 61.77 80.03 61.86 80.29 61.78C80.55 61.7 80.4 61.66 80.55 61.59C80.7 61.52 80.55 61.59 80.65 61.59C80.75 61.59 80.74 61.59 80.83 61.37C80.92 61.15 81.03 61.3 81.24 61.3C81.45 61.3 81.33 61.3 81.33 61.12C81.33 60.94 81.24 61.03 81.27 60.91C81.3 60.79 81.38 60.84 81.48 60.76C81.58 60.68 81.48 60.62 81.38 60.45C81.28 60.28 81.47 60.18 81.53 60.11C81.59 60.04 81.77 60.17 81.79 60.24C81.81 60.31 81.79 60.38 81.79 60.52C81.79 60.66 81.79 60.62 81.87 60.86C81.95 61.1 81.94 60.74 82.06 60.67C82.18 60.6 82.26 60.67 82.37 60.62C82.3943 60.5888 82.4269 60.565 82.4641 60.5515C82.5013 60.538 82.5415 60.5353 82.5802 60.5437C82.6188 60.552 82.6543 60.5711 82.6826 60.5988C82.7109 60.6264 82.7308 60.6615 82.74 60.7C82.82 60.89 82.64 61 82.51 61.08C82.38 61.16 82.51 61.25 82.51 61.36C82.51 61.47 82.72 61.53 82.66 61.73C82.6 61.93 82.51 62.25 82.66 62.19C82.7656 62.0846 82.8793 61.9876 83 61.9C83.17 61.83 83 61.9 83.12 61.9C83.24 61.9 83.27 62.03 83.38 62.03C83.49 62.03 83.38 62.03 83.62 62.29C83.6594 62.334 83.6811 62.391 83.6811 62.45C83.6811 62.509 83.6594 62.566 83.62 62.61C83.68 62.61 83.75 62.7 83.88 62.83C84.01 62.96 84.08 62.83 84.16 62.58C84.24 62.33 84.03 62.41 84.11 62.35C84.2061 62.2952 84.3122 62.2599 84.422 62.2461C84.5318 62.2324 84.6433 62.2405 84.75 62.27C84.96 62.27 84.75 62.27 84.75 62.42C84.75 62.57 84.75 62.58 84.93 62.58C85.0192 62.5632 85.1108 62.5632 85.2 62.58C85.34 62.58 85.26 62.58 85.34 62.63C85.42 62.68 85.42 62.7 85.57 62.63C85.6577 62.588 85.7529 62.5642 85.85 62.56C86.06 62.56 86.08 62.61 86.26 62.56C86.44 62.51 86.32 62.5 86.47 62.5C86.62 62.5 86.58 62.5 86.65 62.3C86.72 62.1 86.65 62.3 86.79 62.3C86.93 62.3 86.93 62.3 86.98 62.13C87.03 61.96 86.74 62.13 86.68 62.01C86.62 61.89 86.68 62.01 86.94 61.76C87.2 61.51 86.86 61.67 86.88 61.47C86.9 61.27 86.98 61.47 87.2 61.36C87.42 61.25 87.32 61.41 87.3 61.56C87.28 61.71 87.3 61.69 87.3 61.88C87.3 62.07 87.24 62.17 87.37 62.17C87.5 62.17 87.56 61.88 87.63 61.72C87.7 61.56 87.72 61.55 87.89 61.55C88.06 61.55 88.06 61.41 88.1 61.35C88.14 61.29 88.33 61.35 88.3 61.5C88.27 61.65 87.85 62.17 87.91 62.31C87.97 62.45 87.98 62.21 88.07 62.13C88.16 62.05 88.28 62.13 88.35 61.93C88.42 61.73 88.42 61.87 88.65 61.87C88.88 61.87 88.78 62.05 88.78 62.05L88.92 61.99C89.04 61.99 89.07 61.99 89.2 61.99C89.33 61.99 89.36 61.88 89.47 61.82C89.58 61.76 89.57 61.82 89.64 61.82C89.71 61.82 89.71 61.62 89.83 61.44C89.95 61.26 90.02 61.55 90.06 61.65C90.1 61.75 90.16 61.65 90.17 61.82C90.18 61.99 90.02 61.94 89.91 62.04C89.7895 62.1495 89.6759 62.2664 89.57 62.39C89.41 62.62 89.57 62.39 89.48 62.71C89.39 63.03 89.31 62.97 89.19 63.07C89.07 63.17 89.08 63.31 89.36 63.19H89.52C89.64 63.1 89.59 63.1 89.69 63.08C89.79 63.06 89.76 63.08 89.89 63.02C89.9234 63.0007 89.9511 62.973 89.9704 62.9397C89.9897 62.9064 89.9999 62.8685 90 62.83C90.0331 62.8049 90.0735 62.7912 90.115 62.7912C90.1565 62.7912 90.1969 62.8049 90.23 62.83C90.35 62.9 90.12 63.02 90.06 63.16C90 63.3 90.06 63.34 90.23 63.28C90.4 63.22 90.3 63.35 90.33 63.48C90.36 63.61 90.33 63.48 90.6 63.48C90.87 63.48 90.6 63.27 90.6 63.13C90.606 63.0668 90.606 63.0032 90.6 62.94C90.5816 62.8893 90.5795 62.8342 90.5938 62.7823C90.6081 62.7303 90.6383 62.6841 90.68 62.65C90.82 62.49 90.77 62.43 90.68 62.2C90.59 61.97 90.79 62.13 90.95 62.08C91.11 62.03 91.06 62.08 91.14 62.25C91.22 62.42 91.14 62.35 91.14 62.57C91.14 62.79 91.14 62.57 91.55 62.48C91.96 62.39 91.55 62.56 91.64 62.76C91.73 62.96 91.64 62.76 92 62.76C92.36 62.76 92 62.85 92 63.13C92 63.41 92.15 63.13 92.25 63.03C92.35 62.93 92.31 62.92 92.39 63.09C92.47 63.26 92.5 63.15 92.62 63.09C92.74 63.03 92.62 62.88 92.52 62.51C92.42 62.14 92.52 62.45 92.79 62.22C92.7988 62.1665 92.8236 62.1169 92.8611 62.0776C92.8985 62.0384 92.9469 62.0113 93 62V63.25C93 71.19 91.73 72.09 87.34 72.69L85.6 72.9C85.3951 73.1841 85.2969 73.5312 85.3225 73.8805C85.3481 74.2298 85.4959 74.5588 85.74 74.81C89.3 74.66 92.62 74.61 95.8 74.61C98.44 74.61 103.28 75.2 108.15 75.21C113.96 75.21 120.15 74.27 125.08 71.63C129.175 69.4882 132.59 66.2449 134.94 62.2658C137.29 58.2867 138.481 53.7301 138.38 49.11C138.37 39.16 133.25 30.52 123 26.79ZM81.82 35.79L81.95 35.64C82.1 35.78 82 36 81.85 35.81L81.82 35.79ZM82.38 38.37C82.38 38.37 82.48 38.43 82.49 38.47C82.5 38.51 82.3 38.37 82.41 38.39L82.38 38.37ZM75.79 52.86C75.84 52.86 75.83 52.83 75.79 52.86ZM77.7 48.15C77.78 48.15 77.91 48.21 77.78 48.26C77.65 48.31 77.66 48.19 77.7 48.15ZM77.23 47.52C77.23 47.59 77.23 47.69 77.15 47.7C77.07 47.71 77.02 47.7 77.02 47.64C77.02 47.58 77.35 47.17 77.23 47.52ZM77 46.82C77 46.82 77.17 46.92 77.12 46.96C77.1018 46.9624 77.0834 46.9602 77.0663 46.9537C77.0492 46.9472 77.034 46.9364 77.022 46.9225C77.0101 46.9086 77.0019 46.892 76.998 46.8741C76.9942 46.8562 76.9948 46.8376 77 46.82ZM76.6 50.91C76.65 50.91 76.7 51.04 76.6 51.02C76.5 51 76.54 50.94 76.6 50.91ZM76.19 47.29C76.34 47.29 76.06 47.45 76.09 47.29C76.12 47.13 76.16 47.3 76.19 47.29ZM76.19 53.84C75.82 53.9 76.19 53.56 76.36 53.58C76.84 53.74 76.52 53.84 76.2 53.84H76.19ZM76.87 51.68C76.25 52.16 76.28 51.53 76.79 51.41C77.35 51.64 77.79 50.81 77.79 51.22C77.63 51.59 77.15 51.37 76.88 51.68H76.87ZM78.93 48.05C78.49 48.05 79.05 47.61 79.04 48.05C79.05 48.07 79 48.08 78.94 48.05H78.93ZM79.09 47.05C79.09 47.05 79 47 79 46.94C79 46.88 79.16 47 79.1 47L79.09 47.05ZM79.3 49.36C79.3257 49.1635 79.4092 48.979 79.54 48.83C79.75 49 79.47 49.24 79.31 49.35L79.3 49.36ZM80.46 57.9L80.4 57.98C80.4 57.98 80.43 57.87 80.47 57.89L80.46 57.9ZM79.91 59.58C79.71 59.58 79.91 59.37 80.02 59.41C80.13 59.45 80 59.54 79.92 59.57L79.91 59.58ZM80.33 58.75C80.13 58.75 80.17 58.59 79.94 58.75C79.88 58.67 80.16 58.48 80.19 58.42C80.2851 58.4802 80.3996 58.5017 80.51 58.48C80.42 58.55 80.29 58.61 80.34 58.74L80.33 58.75ZM81.21 59.9H81.15C81.15 59.9 81.26 59.87 81.22 59.89L81.21 59.9ZM81.37 53.1C81.31 53.1 81.37 52.98 81.42 52.94C81.47 52.9 81.48 53.09 81.38 53.09L81.37 53.1ZM81.57 52.04C81.57 52.04 81.67 52.04 81.69 52.11C81.71 52.18 81.49 52.07 81.58 52L81.57 52.04ZM88.37 41.9C88.04 42.51 88.04 41.9 87.89 41.59C87.92 41.3 88.2 41.9 88.38 41.89L88.37 41.9ZM87.85 29.6C87.93 29.6 88.1 29.68 88.09 29.78C88.08 29.88 87.78 29.66 87.86 29.59L87.85 29.6ZM87.51 29.72C87.51 29.77 87.42 29.86 87.39 29.8C87.36 29.74 87.51 29.63 87.52 29.71L87.51 29.72ZM87.05 29.91C87.11 29.91 87.05 30.01 87.05 30.06C87.05 30.11 87 29.94 87.06 29.9L87.05 29.91ZM86.37 30.75C86.08 30.75 86.47 30.21 86.83 30.75C86.77 30.9 86.53 30.69 86.38 30.74L86.37 30.75ZM86.76 32.44C86.76 32.44 86.65 32.44 86.68 32.36C86.71 32.28 86.79 32.38 86.77 32.43L86.76 32.44ZM86 34.31V34.26C86 34.26 86 34.29 86 34.31ZM85.31 37.57C85.25 37.66 85.22 37.44 85.21 37.4C85.2 37.36 85.31 37.53 85.31 37.57ZM84.83 36C84.83 36 85.02 36 84.96 36.1C84.9 36.2 84.77 36 84.83 36ZM84.83 38.28C84.69 38.28 84.55 38.33 84.44 38.28C84.26 37.66 85.3 38.12 84.88 38.23L84.83 38.28ZM84.04 38.84C84.12 38.89 84.04 39.08 84.24 39.09C84.44 39.1 84.52 39.2 84.42 39.35C84.32 39.5 83.69 39.22 83.67 39.15C83.65 39.08 84 38.83 84.09 38.79L84.04 38.84ZM83.28 40.13C83.65 40.13 83.28 39.83 83.56 39.88C84.43 40.14 83.43 41.24 83.23 40.2L83.28 40.13ZM83.44 46.38C83.62 46.38 83.58 46.17 83.67 46.09C83.95 46.85 84.17 46.18 84.31 45.77C84.5 45.96 83.92 47.28 84.65 46.34C84.8 46.69 84.58 47.03 84.33 47.34C84.4 47.14 84.05 47.05 83.95 46.9C83.54 46.9 83.38 46.99 83.16 46.57C83.35 46.4 83.24 46.23 83.49 46.33L83.44 46.38ZM84.53 53.89C84.37 53.89 84.53 53.78 84.6 53.8C84.67 53.82 84.66 53.86 84.58 53.84L84.53 53.89ZM84.25 53.89C84.06 54.06 83.68 54.05 83.43 54.1C83.18 54.15 83.43 53.96 83.43 53.96C83.85 53.52 83.94 53.53 84.3 53.83L84.25 53.89ZM83.51 48.12C83.61 47.86 83.62 48.12 83.81 47.9C83.81 47.96 83.87 48.16 83.75 48.08C83.63 48 83.63 48.07 83.56 48.06L83.51 48.12ZM84.13 48.95C84.19 48.95 84.34 48.95 84.29 49.03C84.32 49.24 84.12 48.91 84.18 48.89L84.13 48.95ZM84.2 47.42C84.2 47.42 84.33 47.42 84.33 47.34C84.44 47.48 84.25 47.53 84.25 47.36L84.2 47.42ZM83.47 58.52C83.3356 58.5817 83.187 58.6059 83.04 58.59C83.1054 58.5341 83.1823 58.4934 83.2654 58.4709C83.3484 58.4485 83.4354 58.4447 83.52 58.46L83.47 58.52ZM82.25 59.19C82.18 59.19 82.25 59.05 82.25 59.02C82.25 58.99 82.39 59.11 82.3 59.13L82.25 59.19ZM81.95 54.29C81.9427 54.1907 81.9599 54.0911 82 54C82.08 54 82.14 54.29 82.27 54.06C82.27 53.58 82.63 54.25 82.88 54.01C83.62 54 82.16 54.17 82 54.23L81.95 54.29ZM82.95 60.43C82.73 60.43 82.86 60.27 82.95 60.17C83.04 60.07 83.34 60.43 83.63 60.26C84 60.24 83.05 60.37 83 60.37L82.95 60.43ZM83.76 56.94C83.64 56.79 83.36 56.87 83.41 56.61C83.46 56.35 83.84 56.74 83.96 56.86C84.08 56.98 83.8 56.93 83.76 56.88V56.94ZM84 56.2C84 56.08 84.16 56.2 84.15 56.3C84.14 56.4 83.93 56.27 84 56.2ZM84.43 60.27C83.96 60.19 84.09 60.27 84.35 59.97C84.61 59.67 84.54 59.97 84.76 59.81C84.98 59.65 84.82 60.04 84.97 60.04C85.12 60.04 85.28 59.91 85.42 59.96C85.1 60.14 84.68 60.1 84.38 60.27H84.43ZM85.43 34.51C85.37 34.11 86.11 34.82 86.08 34.31C86.38 34.6 86.72 34.97 86.75 34.31C86.97 34.24 86.96 33.96 87.04 33.78C87.12 33.6 87.31 33.71 87.22 33.56C86.75 32.96 87.34 33.32 87.51 33.23C87.68 33.14 87.7 33.45 87.85 33.46C88 33.47 87.85 33.57 87.85 33.61C87.46 33.84 87.85 34.1 87.24 34.19C87.33 34.78 86.82 34.66 87.03 34.93C87.12 35.02 86.71 35.23 87.03 35.29C87.18 35.76 86.64 35.1 86.53 35.08C86.25 35.27 86.46 35.26 86.13 35.08C86.108 35.0659 86.0832 35.0564 86.0574 35.0523C86.0315 35.0482 86.0051 35.0494 85.9797 35.056C85.9543 35.0626 85.9306 35.0743 85.91 35.0905C85.8894 35.1067 85.8724 35.1269 85.86 35.15C85.76 35.09 85.64 34.9 85.78 34.8C85.92 34.7 85.45 34.6 85.35 34.51H85.43ZM86.64 47.39C86.64 47.24 86.86 47.49 86.76 47.52C86.66 47.55 86.55 47.47 86.56 47.39H86.64ZM86.53 48.19C86.4761 48.2004 86.4205 48.1977 86.3679 48.1819C86.3153 48.1662 86.2673 48.138 86.228 48.0996C86.1887 48.0613 86.1592 48.014 86.1422 47.9619C86.1251 47.9097 86.1209 47.8541 86.13 47.8C86.06 47.55 86.87 48.24 86.45 48.19H86.53ZM86.77 42.77C86.77 42.48 86.41 42.42 86.31 42.16C85.99 41.7 86.15 41.74 86.45 42.1C87 42.1 86.21 41.28 85.98 41.2C85.67 40.91 85.98 40.86 86.15 41.2C86.32 41.54 86.64 41.2 86.86 41.2C86.86 41.37 87 41.43 87.07 41.52C86.86 41.67 87.12 41.96 86.88 42.06C86.55 42.36 87.28 42.41 87.28 42.64C87.28 42.87 87.28 42.88 87.11 42.8C86.94 42.72 86.71 42.9 86.69 42.77H86.77ZM86.33 37.4C85.87 37.5 86.06 37.18 86.05 36.9C86.05 36.78 86.4 36.84 86.51 36.81C86.14 37.06 86.48 37.37 86.25 37.4H86.33ZM87.16 37.22C87.16 37.22 87.32 37.37 87.16 37.37C87 37.37 86.89 37.27 87.08 37.22H87.16ZM87.32 54.05C87.67 54.05 88.04 54.25 87.41 54.23C86.94 54.23 86.7 54.14 87.24 54.05H87.32ZM87.37 49.1C87.37 49.04 87.37 48.98 87.37 48.92C87.49 48.86 87.42 49.11 87.29 49.1H87.37ZM85.75 37.18C85.67 37.36 85.47 37.24 85.56 37.08C85.5973 37.0808 85.6338 37.0902 85.6668 37.1076C85.6998 37.1249 85.7283 37.1497 85.75 37.18ZM85.88 45.41C85.67 45.46 85.7 45.41 85.55 45.28C85.4 45.15 85.55 45.15 85.55 45.04C85.4 44.52 85.95 45.33 85.93 44.86C85.81 44.71 85.93 44.69 86.04 44.61C86.48 44.71 86.1 44.8 86.23 45.01C86.36 45.22 86.42 44.81 86.55 44.81C86.99 45.17 85.87 45.04 86.2 45.45C86.2 45.52 86.12 45.52 86.08 45.54C86.04 45.56 86 45.42 85.88 45.41ZM86.31 58.86C86.31 58.79 86.45 58.73 86.47 58.64C86.87 58.94 86.73 59.3 86.31 58.86ZM88.31 54.78C87.69 54.54 87.76 55.27 87.14 55.29C87.02 55.35 87.02 55.17 86.93 55.15C86.84 55.13 86.81 55.15 86.81 55.06C86.81 54.77 86.41 54.93 86.25 54.78C86.09 54.63 85.82 54.45 86.07 54.46C86.54 54.46 86.96 54.63 87.42 54.61C87.74 54.56 88.8 54.22 88.33 54.78H88.31ZM90.11 32.66C90.11 32.56 89.89 32.38 89.92 32.34C91.02 32.14 89.83 33.34 90.5 33.18C90.95 33.52 90.09 33.62 89.88 32.76C90 32.86 90.21 32.83 90.13 32.66H90.11ZM90.2 38.46C90.13 38.41 90.09 38.31 89.99 38.32C90.05 38.32 89.99 38.11 90.12 38.19C90.25 38.27 90.28 38.19 90.32 38.26C90.36 38.33 90.32 38.46 90.22 38.46H90.2ZM89.89 38.35C89.89 38.35 89.8 38.48 89.76 38.43C89.72 38.38 89.87 38.35 89.91 38.35H89.89ZM89.63 32C89.73 32.05 89.76 32.2 89.84 32.28C89.75 32.25 89.55 32.11 89.63 32ZM89.77 45.16C89.77 44.87 89.97 45.08 90.17 44.91C90.34 44.91 90.58 45.37 90.38 45.41C90.27 44.83 89.8 45.52 89.77 45.17V45.16ZM91 51C90.82 50.93 90.76 51 90.57 50.93C90.39 50.58 90.37 50.66 90.1 50.84C90.1 50.63 90.26 50.29 90.1 50.13C90.27 49.97 90.02 49.97 90.21 49.53C90.28 49.53 90.34 49.7 90.51 49.65C90.68 49.6 90.37 49.83 90.44 49.93C90.51 50.03 90.18 50.13 90.32 50.28C90.46 50.43 90.55 50.07 90.7 50.04C91.17 50.32 90.15 50.41 91.08 50.74C91.16 50.82 91.08 51 91 51ZM91.27 32.59C91.27 32.37 91.46 32.69 91.55 32.72C91.47 33.06 91.24 32.86 91.27 32.59ZM91.55 54.21C91.55 54.12 91.55 54.04 91.43 54.04C91.43 53.83 91.65 54.04 91.63 54.13C91.61 54.22 91.16 54.57 91.55 54.21ZM91.72 53.8C91.72 53.8 91.89 53.8 91.86 53.8C91.83 53.8 91.71 53.86 91.72 53.8ZM91.72 45.48C91.66 45.42 91.78 45.33 91.82 45.3C91.86 45.27 91.9 45.16 92.08 45.14C92.44 44.8 92.18 45.43 92.73 45.41C92.59 45.98 92.09 45.65 92.14 46.03C92.02 46.03 91.99 45.64 91.99 45.53C91.99 45.42 91.78 45.34 91.69 45.48H91.72ZM92.52 54C92.52 54 92.44 54 92.4 54C92.36 54 92.5 53.87 92.52 54ZM93.18 55.86C93.07 55.77 92.81 55.43 92.76 55.73C92.76 56.53 92 55.47 92.22 55.37C92.44 55.27 92.06 54.87 91.98 54.7C92.42 54.21 92.19 54.92 92.39 55.13C92.4078 55.1511 92.4311 55.1668 92.4572 55.1755C92.4834 55.1842 92.5114 55.1856 92.5383 55.1794C92.5652 55.1732 92.5898 55.1597 92.6095 55.1404C92.6292 55.1211 92.6432 55.0967 92.65 55.07C93.09 54.87 92.9 55.64 93.27 55.79C93.37 55.85 93.24 55.89 93.18 55.85V55.86ZM94.18 35.26C94.18 35.26 94.18 35.17 94.18 35.18C94.18 35.19 94.22 35.25 94.17 35.25L94.18 35.26ZM97.47 35.99C97.41 35.99 97.32 35.99 97.26 35.99C97.34 35.78 97.64 35.79 97.46 36L97.47 35.99ZM97.1 57.9C97.0462 57.9873 96.9747 58.0622 96.89 58.12C96.92 58 97 57.87 97.09 57.89L97.1 57.9ZM96.78 59.9C96.78 59.84 96.86 59.9 96.88 59.98C96.9 60.06 96.74 60 96.77 59.88L96.78 59.9ZM95.77 36C95.85 36 96 36.09 95.77 36.11C95.54 36.13 95.66 36.1 95.77 36ZM94.77 29.76C94.85 29.67 94.77 29.53 94.89 29.42C94.89 29.16 94.79 29.01 95.15 28.97C95.31 28.97 95.15 28.65 95.37 28.73C95.69 29.22 95.53 28.87 95.43 29.25C95.51 29.61 95.56 30.25 95.04 30.08C94.93 30 94.66 30.08 94.65 29.92C94.64 29.76 94.72 29.83 94.76 29.78L94.77 29.76ZM95.1 35.47C95.31 34.89 95.39 35.63 95.1 35.54C95.07 35.56 95 35.53 95.09 35.49L95.1 35.47ZM95 34.71C95 34.66 95.14 34.77 95.12 34.81C95.1051 34.8155 95.0891 34.817 95.0735 34.8144C95.0578 34.8117 95.0432 34.8049 95.031 34.7948C95.0188 34.7846 95.0095 34.7714 95.0041 34.7566C94.9987 34.7417 94.9972 34.7256 95 34.71ZM94.68 38.37C94.68 38.3 94.76 38.21 94.78 38.37C94.8 38.53 94.76 38.4 94.7 38.37H94.68ZM94.75 39.23C94.66 39.28 94.56 39.23 94.49 39.14C94.72 39.02 94.63 38.7 94.96 38.76C95.47 38.96 95.86 38.26 95.96 38.54C95.73 39.07 95.39 38.59 94.77 39.23H94.75ZM98.3 64.23C98.3 68.47 98.02 70.59 97.13 71.68L96.91 71.42C95.62 69.6 95.91 67.28 95.91 63.25V62.25C95.91 62.16 95.91 62.25 96.14 62.25C96.37 62.25 96.14 62.44 96.42 62.67C96.7 62.9 96.42 62.59 96.66 62.44C96.9 62.29 96.75 62.44 96.87 62.36C96.99 62.28 96.87 62.21 96.66 61.99C96.45 61.77 96.66 61.99 96.89 61.99C97.12 61.99 96.96 61.99 97.03 61.87C97.1 61.75 96.89 61.73 97.13 61.62C97.37 61.51 97.24 61.8 97.28 62C97.32 62.2 97.4 62.06 97.6 62C97.8 61.94 97.6 61.93 97.6 61.86C97.6 61.79 97.89 62 98.19 61.86H98.28L98.3 64.23ZM98.66 57.36C98.54 57.36 98.2 57.36 98.22 57.22C98.24 57.08 98.91 57.34 98.68 57.34L98.66 57.36ZM98.42 39C98.42 38.51 98.74 38.59 98.95 38.87C98.8 38.91 98.45 39.3 98.42 39ZM99.74 26C99.79 25.93 99.94 25.78 100.02 25.85C100.1 25.92 99.77 26.2 99.74 26ZM102.51 28.62C102.5 28.6425 102.485 28.6623 102.466 28.6779C102.446 28.6935 102.424 28.7045 102.4 28.71C102.4 28.71 102.5 28.47 102.51 28.63V28.62ZM102.51 43.35C102.62 43.49 102.77 43.42 102.9 43.42C103.28 43.56 103.05 43.93 102.9 44.2C102.75 44.47 103.17 44.2 103.24 44.35C103.34 44.95 102.47 44.14 102.51 43.89C102.88 44.28 102.9 43.75 102.63 43.56C102.53 43.41 102.24 43.32 102.24 43.14C102.39 43.13 102.44 43.32 102.52 43.36L102.51 43.35ZM104 37.48C104 37.58 104.4 37.62 104.25 37.72C104.1 37.82 103.77 37.91 103.83 37.62C103.89 37.33 103.85 37.33 104 37.48ZM105.84 36.93C106.02 36.83 106.42 37.11 106.48 37.26C106.26 37.41 106.26 37.83 105.97 37.85C105.68 37.87 105.77 37.57 105.7 37.43C105.42 37 106 37.34 105.82 36.93H105.84ZM108.04 32.38C107.94 32.56 107.73 32.5 107.64 32.68C107.55 32.86 107.56 32.68 107.52 32.68C107.48 32.68 107.45 32.77 107.41 32.75C107.37 32.73 107.62 32.6 107.41 32.44C107.2 32.28 107.1 32.34 106.95 32.36C106.95 32.2 107.18 32.1 107.31 32C107.64 31.89 107.8 31.39 107.77 32C107.74 32.61 108.3 31.94 108 32.38H108.04ZM108.4 43.2C108.5 43.33 108.26 43.36 108.18 43.37C108.1 43.38 108.03 43.3 108.12 43.22C108.21 43.14 108.12 43.07 108.03 43.05C107.94 43.03 107.95 42.62 108.15 42.61C108.35 42.6 108.39 42.61 108.37 42.87C108.48 43 108.39 43.07 108.38 43.2H108.4ZM108.49 54.74C108.26 54.81 108.24 54.74 108.23 55.05C108.188 55.0818 108.159 55.1275 108.148 55.1789C108.137 55.2303 108.145 55.2839 108.17 55.33C108.17 55.5 107.95 55.33 107.87 55.41C107.79 55.49 107.62 55.18 107.3 55.23C107.16 55.23 107.15 55.01 107.3 54.93C107.45 54.85 107.83 55.1 107.86 54.77C107.89 54.44 107.73 54.61 107.96 54.42C108.05 54.42 108.15 54.55 108.25 54.42C108.38 54.16 108.16 54.17 108.55 54.12C108.94 54.07 108.55 54.2 108.55 54.32C108.55 54.44 108.4 54.54 108.47 54.74H108.49ZM108.21 60C108.21 59.9 108.1 59.77 107.97 59.85C107.84 59.93 107.91 59.78 107.97 59.79C108.03 59.8 108.44 59.81 108.21 60ZM107.06 49C106.88 48.94 107.2 48.84 107.2 48.89C107.2 48.94 107.11 49 107.06 49ZM107.55 49.86C107.41 49.86 107.3 49.64 107.47 49.61C107.64 49.58 107.78 49.88 107.55 49.85V49.86ZM107.8 50.62C107.8 50.73 107.61 50.62 107.59 50.62C107.57 50.62 107.78 50.54 107.8 50.61V50.62ZM107 36C107.06 36.08 107 36.21 107 36.31C107 36.41 106.89 36.41 106.81 36.41C106.57 36.36 106.06 36.23 106.09 35.94C106.62 35.65 106.55 36.13 107 36ZM105.47 33.34C105.55 33.2 105.68 33.22 105.73 33.34C105.78 33.46 105.52 33.41 105.46 33.38L105.47 33.34ZM105.59 42.49C105.59 42.58 105.59 42.78 105.78 42.73C105.97 42.68 106.22 43 106.11 43.03C105.97 42.85 105.67 43.18 105.7 42.96C105.73 42.74 105.41 42.64 105.21 42.72C105.01 42.8 105.15 42.5 105.28 42.59C105.41 42.68 105.33 42.33 105.58 42.53L105.59 42.49ZM106.03 52.49C106.03 52.59 105.94 52.49 105.92 52.43C105.9 52.37 106 52.44 106 52.53L106.03 52.49ZM106.03 47.35C106.12 47.35 106.12 47.42 106.03 47.44C105.94 47.46 106 47.39 106 47.39L106.03 47.35ZM106.14 59.45C106.2 59.45 106.14 59.76 106.05 59.76C105.96 59.76 106 59.44 106.09 59.49L106.14 59.45ZM105.47 45C105.33 45.06 105.47 45.32 105.33 45.3C104.94 45.17 103.78 44.95 104.87 44.7C104.87 44.7 104.98 44.7 105 44.75C105 45 105.46 44.8 105.47 45ZM104.91 46.25C104.21 47.25 104.42 46.89 103.91 46.25C104.39 46.02 104.08 45.92 103.91 45.64C104.259 45.8242 104.593 46.0348 104.91 46.27V46.25ZM104.91 48.63C104.82 48.63 104.63 48.63 104.78 48.47C104.93 48.31 104.91 48.58 104.87 48.65L104.91 48.63ZM104 43.82C104.06 43.82 104.25 43.82 104.24 43.89C104.23 43.96 103.93 44.08 104 43.82ZM103.79 59.43C103.7 59.43 103.64 59.25 103.57 59.17C103.67 58.91 104.06 59.42 103.77 59.43H103.79ZM103.48 37.37C103.34 37.5 103.17 37.37 103.3 37.25C103.329 37.2711 103.364 37.2825 103.4 37.2825C103.436 37.2825 103.471 37.2711 103.5 37.25C103.61 37.25 103.6 37.44 103.78 37.25C103.77 37.43 103.56 37.28 103.46 37.37H103.48ZM103.06 50.37C103.06 50.37 102.84 50.21 102.96 50.16C103.08 50.11 103.28 50.24 103 50.37H103.06ZM102.14 28.42C102.14 28.33 102.27 28.31 102.26 28.42C102.25 28.53 102.26 28.63 102.26 28.67C102.26 28.71 102.06 28.67 102.05 28.51C102.04 28.35 102.09 28.48 102.12 28.42H102.14ZM102.14 52.42C102.14 52.7 102.37 52.62 102.52 52.52C102.67 52.42 102.52 53.17 102.97 53.17C102.97 53.17 103.04 53.17 103.03 53.24C103.03 53.63 102.79 53.33 102.59 53.55C102.28 54.07 102.42 53.67 102.03 53.83C101.983 53.6532 101.953 53.4724 101.94 53.29C102.14 52.78 101.4 53.11 102.17 52.44L102.14 52.42ZM101.58 44C101.69 43.94 101.72 44 101.58 44.1C101.44 44.2 101.43 44 101.58 44ZM109.48 72.88C105.48 72.88 103.92 71.67 102.57 69.76C101.45 68.22 101.14 66.19 101.07 63.08C101.25 62.98 101.07 63.23 101.07 63.37C101.07 63.51 101.19 63.37 101.42 63.2C101.65 63.03 101.42 63.37 101.31 63.61C101.2 63.85 101.31 63.88 101.43 63.72C101.55 63.56 101.57 63.65 101.67 63.58C101.77 63.51 101.67 63.45 101.75 63.33C101.83 63.21 101.84 63.33 101.94 63.24C102.04 63.15 101.94 63.24 101.94 63.06C101.94 62.88 102.01 63.06 102.11 62.79C102.21 62.52 101.94 62.38 101.92 62.24C101.9 62.1 102.17 62.24 102.24 62.24C102.31 62.24 102.32 62.24 102.48 62.33C103.56 61.23 103.74 62.44 103.97 61.47C103.97 61.26 104.46 61.67 104.59 61.64C104.72 61.61 104.98 61.64 104.93 61.47C104.85 61.3143 104.745 61.1724 104.62 61.05C104.62 61.05 104.62 61.05 104.69 61.05C104.851 61.0719 105.007 61.1227 105.15 61.2C105.35 61.27 104.97 61.33 104.97 61.33C105.013 61.4045 105.075 61.4665 105.15 61.51C105.242 61.5683 105.339 61.6185 105.44 61.66C105.421 61.6844 105.411 61.7143 105.411 61.745C105.411 61.7757 105.421 61.8056 105.44 61.83C105.5 61.92 105.64 61.92 105.75 61.99C105.861 62.047 105.985 62.0746 106.11 62.07C106.23 62.13 106.17 62.24 106.26 62.32C106.316 62.3912 106.344 62.4798 106.34 62.57C106.63 62.68 106.74 62.57 106.93 62.57C107.12 62.57 106.93 62.57 107.13 62.72C107.33 62.87 107.61 62.62 107.5 62.48C107.39 62.34 107.36 62.48 107.22 62.29C107.08 62.1 106.86 62.2 106.89 62.13C106.92 62.06 106.89 62.13 106.89 61.95C106.89 61.77 106.95 61.9 107.14 61.95C107.33 62 107.28 61.9 107.14 61.84C107 61.78 107.04 61.64 106.88 61.54C106.72 61.44 106.75 61.46 106.71 61.42C106.67 61.38 106.58 61.42 106.53 61.3H106.63C106.9 61.36 106.81 61.3 106.88 61.2C106.95 61.1 107.02 61.01 107.17 61.28C107.32 61.55 107.17 61.57 107.42 61.42C107.67 61.27 107.49 61.23 107.64 61.28C107.79 61.33 107.72 61.36 107.92 61.34C108.12 61.32 108 61.49 108.11 61.46C108.22 61.43 108.29 61.52 108.24 61.68C108.19 61.84 108.36 61.89 108.51 61.89C108.66 61.89 108.59 61.89 108.75 61.89C108.91 61.89 108.91 61.96 108.98 61.89C108.855 61.7523 108.763 61.5882 108.71 61.41C108.58 61.06 108.71 61.33 108.91 61.21C109.11 61.09 109.02 61.29 109.1 61.44C109.18 61.59 109.19 61.79 109.22 61.52C109.25 61.25 109.37 61.45 109.52 61.37C109.67 61.29 109.52 61.07 109.62 61.1C109.76 61.1444 109.91 61.1444 110.05 61.1C110.3 61.1 110.24 61.16 110.37 61.27C110.5 61.38 110.45 61.4 110.52 61.49C110.59 61.58 110.62 61.56 110.67 61.63C110.72 61.7 110.9 61.63 111.07 61.63C111.24 61.63 111.26 61.63 111.26 61.63C111.327 61.7532 111.387 61.8801 111.44 62.01C111.5 62.2 111.44 62.12 111.55 62.01C111.66 61.9 111.65 61.89 111.75 61.76C111.85 61.63 111.95 61.82 112.03 62.11C112.11 62.4 112.03 62.26 112.38 62.34C112.73 62.42 112.65 62.28 112.83 62.4C113.01 62.52 113 62.57 113.17 62.61C113.34 62.65 113.24 62.52 113.17 62.37C113.152 62.2406 113.152 62.1094 113.17 61.98C113.17 61.79 112.76 61.83 112.57 61.89C112.38 61.95 112.25 61.89 112.19 61.65C112.13 61.41 112.19 61.56 112.35 61.59C112.51 61.62 112.47 61.59 112.62 61.53C112.77 61.47 112.62 61.39 112.62 61.1C112.62 60.81 112.71 61.19 112.87 61.29C113.03 61.39 112.98 61.29 113.07 61.45C113.16 61.61 113.26 61.59 113.47 61.79C113.563 61.9218 113.628 62.0717 113.66 62.23C113.66 62.11 113.81 62.05 114.04 61.94C114.27 61.83 114.04 61.94 114.04 61.83C114.04 61.72 113.94 61.71 113.77 61.53C113.6 61.35 113.77 61.41 113.87 61.29C113.97 61.17 114.04 61.22 114.19 61.22C114.34 61.22 114.32 61.22 114.54 61.04C114.76 60.86 114.66 60.92 114.88 60.92C115.1 60.92 115.05 60.92 115.01 60.66C114.97 60.4 114.88 60.48 115.01 60.42C115.14 60.36 115.14 60.48 115.43 60.63C115.72 60.78 115.62 60.69 115.68 60.72C115.74 60.75 115.79 60.72 116.2 60.79C116.41 60.79 116.47 60.87 116.47 60.89C116.475 60.8738 116.475 60.8562 116.47 60.84C116.58 60.72 116.4 60.77 116.3 60.64C116.2 60.51 116.3 60.48 116.52 60.29C116.74 60.1 116.69 60.17 116.76 59.85C116.83 59.53 116.76 59.76 116.98 59.85C117.2 59.94 116.98 59.85 116.93 59.71C116.88 59.57 116.93 59.58 117.12 59.46C117.31 59.34 117.24 59.46 117.34 59.58C117.44 59.7 117.57 59.85 117.63 59.71C117.69 59.57 117.78 59.88 117.87 59.94C117.9 59.9684 117.939 59.9857 117.98 59.9889C118.021 59.9921 118.062 59.9811 118.096 59.9577C118.13 59.9342 118.155 59.8998 118.167 59.8601C118.178 59.8205 118.176 59.7781 118.16 59.74C118.16 59.57 118.3 59.48 118.16 59.37C118.117 59.3425 118.081 59.306 118.054 59.2631C118.026 59.2201 118.009 59.1717 118.002 59.1212C117.995 59.0708 118 59.0195 118.015 58.9709C118.03 58.9223 118.056 58.8777 118.09 58.84C118.28 58.66 117.87 58.65 117.75 58.51C117.63 58.37 117.67 58.23 117.75 58.07C117.83 57.91 117.82 58.07 117.95 58.07C118.08 58.07 117.95 58.01 117.95 57.83C117.95 57.65 117.8 57.67 117.7 57.61C117.6 57.55 117.61 57.33 117.93 57.07C118.25 56.81 118.15 57.07 118.07 57.39C117.99 57.71 118.07 57.76 118.22 57.76C118.37 57.76 118.42 57.51 118.66 57.51C118.9 57.51 118.66 57.34 118.66 57.22C118.66 57.1 118.66 56.98 118.9 57.01C119.14 57.04 119.02 57.18 119.12 57.31C119.22 57.44 119.25 57.25 119.25 56.98C119.25 56.71 119.25 56.86 119.37 56.88C119.49 56.9 119.5 56.98 119.55 56.88C119.6 56.78 119.55 56.74 119.55 56.45C119.55 56.16 119.7 56.54 119.89 56.62C120.08 56.7 119.97 56.42 119.96 56.33C119.95 56.24 119.81 56.19 119.96 56.04C120.11 55.89 120.04 55.87 119.96 55.73C119.88 55.59 120.03 55.5 120.16 55.47C120.287 55.4507 120.411 55.4172 120.53 55.37C120.7 55.32 120.92 55.61 121.16 55.58C121.4 55.55 121.1 55.44 121.03 55.4C120.96 55.36 120.85 55.19 120.7 55.06C120.55 54.93 120.51 54.8 120.64 54.65C120.77 54.5 120.93 54.83 121.11 54.71C121.29 54.59 120.76 54.43 120.61 54.39C120.46 54.35 120.49 54.2 120.79 54.2C121.09 54.2 120.88 54.12 120.67 54.01C120.46 53.9 120.46 54.01 120.2 54.01C119.94 54.01 120.07 54.22 119.86 54.33C119.65 54.44 119.74 53.8 119.6 54.12C119.46 54.44 119.38 54.33 119.13 54.31C118.88 54.29 119.04 54.07 118.87 53.8C118.7 53.53 119 53.66 119.18 53.71C119.36 53.76 119.39 53.61 119.53 53.52C119.67 53.43 119.53 53.38 119.48 53.26C119.43 53.14 119.48 53.11 119.48 52.95C119.48 52.79 119.4 52.8 119.25 52.68C119.1 52.56 119.25 52.5 119.4 52.55C119.55 52.6 119.48 52.55 119.74 52.46C120 52.37 119.86 52.46 119.84 52.58C119.82 52.7 119.78 52.77 120.01 52.95C120.24 53.13 120.21 52.95 120.27 53.11C120.33 53.27 120.36 53.23 120.48 53.11C120.521 53.0918 120.565 53.0824 120.61 53.0824C120.655 53.0824 120.699 53.0918 120.74 53.11C120.76 52.9774 120.76 52.8426 120.74 52.71C120.74 52.52 120.74 52.52 120.85 52.49C120.96 52.46 121.08 52.66 121.11 52.83C121.14 53 121.42 52.83 121.42 52.83C121.51 52.7835 121.609 52.7562 121.71 52.75C121.86 52.75 121.64 52.57 121.57 52.54C121.422 52.4143 121.3 52.2616 121.21 52.09C121.11 51.89 121.61 52.09 121.61 52.09C121.632 52.0484 121.643 52.002 121.643 51.955C121.643 51.908 121.632 51.8616 121.61 51.82C121.578 51.7088 121.528 51.6039 121.46 51.51C121.46 51.51 121.63 51.51 121.7 51.43C121.77 51.35 121.63 51.22 121.58 51.08C121.53 50.94 121.41 50.89 121.32 50.76C121.23 50.63 121.41 50.61 121.43 50.49C121.434 50.4443 121.429 50.3981 121.413 50.3549C121.398 50.3116 121.373 50.2724 121.34 50.24L121.04 49.8C120.94 49.65 121.04 49.63 120.96 49.35C120.88 49.07 120.86 49.17 120.8 49.35C120.74 49.53 120.8 49.58 120.74 49.81C120.68 50.04 120.65 50.11 120.52 50.12C120.39 50.13 120.42 50.12 120.27 50.24C120.12 50.36 120.15 50.24 120 50.07C119.85 49.9 119.89 49.94 119.84 50.07C119.818 50.2134 119.781 50.3542 119.73 50.49C119.63 50.76 119.73 50.49 119.73 50.65C119.73 50.81 119.81 50.81 119.73 50.94C119.65 51.07 119.59 50.89 119.51 50.82C119.43 50.75 119.41 50.76 119.24 50.82C119.07 50.88 119.24 51 119.09 51.32C118.94 51.64 118.97 51.24 118.84 51.04C118.71 50.84 118.84 50.93 118.71 50.57C118.58 50.21 118.71 50.33 118.49 50.36C118.27 50.39 118.49 50.57 118.34 50.82C118.19 51.07 118.14 50.7 118.07 50.54C118 50.38 118.07 50.41 118.07 50.32C118.07 50.23 118.07 50.21 117.98 49.97C117.89 49.73 117.88 49.74 117.98 49.59C118.006 49.4647 118.006 49.3353 117.98 49.21C117.98 49.01 117.61 49.01 117.43 48.83C117.25 48.65 117.43 48.83 117.68 48.74C117.93 48.65 117.68 48.59 117.55 48.44C117.484 48.1948 117.444 47.9435 117.43 47.69C117.43 47.46 117.29 47.58 117.19 47.58C117.09 47.58 116.91 47.35 116.79 47.17C116.67 46.99 116.61 46.94 116.61 46.94C116.61 46.94 116.61 46.66 116.51 46.41C116.41 46.16 116.51 46.07 116.51 46.07C116.57 46.0807 116.627 46.101 116.68 46.13C116.76 46.13 116.76 46.41 116.87 46.62C116.98 46.83 116.87 46.69 117.13 46.79C117.39 46.89 117.19 46.85 117.29 47.01C117.39 47.17 117.44 47.13 117.48 47.06C117.52 46.99 117.48 47.06 117.4 46.92C117.32 46.78 117.4 46.83 117.59 46.69C117.78 46.55 117.59 46.6 117.48 46.28C117.37 45.96 117.41 46.13 117.31 45.96C117.21 45.79 117.38 45.8 117.55 45.81C117.72 45.82 117.55 45.81 117.62 45.81C117.623 45.7867 117.623 45.7633 117.62 45.74C117.62 45.74 117.7 45.74 117.71 45.81C117.72 45.88 117.71 45.93 117.77 45.93C117.83 45.93 117.77 46.03 117.77 46H117.71C117.705 46.0733 117.705 46.1467 117.71 46.22C117.71 46.5 117.78 46.33 117.9 46.22C118.02 46.11 118.01 46.17 118.05 46.3C118.062 46.3254 118.081 46.3467 118.105 46.3617C118.129 46.3767 118.157 46.3846 118.185 46.3846C118.213 46.3846 118.241 46.3767 118.265 46.3617C118.289 46.3467 118.308 46.3254 118.32 46.3C118.4 46.22 118.32 46.22 118.32 45.9C118.32 45.58 118 46 118 45.91C118 45.82 118.16 45.74 118.24 45.65C118.32 45.56 118.24 45.65 118.5 45.55C118.634 45.5146 118.772 45.4945 118.91 45.49C119.17 45.49 118.91 45.35 118.84 45.21C118.744 45.0864 118.657 44.9561 118.58 44.82C118.43 44.6 118.36 44.82 118.17 44.68C117.98 44.54 118.17 44.34 117.99 44.51C117.81 44.68 117.81 44.56 117.7 44.27C117.59 43.98 117.35 44.27 117.18 44.03C117.01 43.79 117.18 43.71 117.3 43.71C117.42 43.71 117.5 43.6 117.6 43.37C117.7 43.14 117.8 43.17 117.75 42.99C117.691 42.7545 117.549 42.5484 117.35 42.41C117.16 42.28 117.25 42.2 117.35 41.9C117.45 41.6 117.35 41.72 117.21 41.73C117.07 41.74 117.04 42.05 116.88 41.88C116.72 41.71 116.88 41.67 116.78 41.62C116.716 41.5787 116.662 41.5227 116.624 41.4566C116.586 41.3905 116.564 41.3163 116.56 41.24C116.49 41.02 116.44 41.09 116.27 41C116.1 40.91 116.05 41 115.9 41C115.75 41 115.9 40.92 115.81 40.66C115.72 40.4 115.61 40.4 115.51 40.31C115.459 40.2616 115.418 40.2024 115.393 40.1368C115.367 40.0711 115.356 40.0005 115.36 39.93C115.36 39.74 115.43 39.83 115.62 39.93C115.81 40.03 115.99 40.01 115.89 39.75C115.79 39.49 115.75 39.46 116.07 39.42C116.39 39.38 116.21 39.33 116.15 39.02C116.09 38.71 116.07 39.02 115.89 38.87C115.71 38.72 115.83 38.46 115.65 38.57C115.65 38.57 115.51 38.7 115.34 38.57C115.17 38.44 115.27 38.72 115.11 38.96C114.95 39.2 114.93 39.13 114.74 38.96C114.55 38.79 114.53 38.96 114.37 38.96C114.296 38.9702 114.222 38.9536 114.159 38.9132C114.097 38.8728 114.051 38.8113 114.03 38.74C114.03 38.53 114.23 38.56 114.27 38.42C114.31 38.28 114.19 38.22 114.03 38.09C113.986 38.0701 113.946 38.0403 113.915 38.0029C113.884 37.9655 113.862 37.9215 113.85 37.8743C113.839 37.827 113.838 37.7778 113.849 37.7303C113.859 37.6827 113.88 37.6382 113.91 37.6C114.03 37.34 114.15 37.85 114.15 37.85C114.166 37.8055 114.192 37.7649 114.224 37.7305C114.257 37.6961 114.296 37.6687 114.34 37.65C114.53 37.57 114.43 37.57 114.43 37.42C114.43 37.27 114.43 37.36 114.5 37.25C114.557 37.1857 114.592 37.1052 114.6 37.02C114.6 36.88 114.68 37.02 114.85 37.02C115.02 37.02 115.02 37.11 115.12 37.02C115.22 36.93 115.22 37.02 115.02 36.74C114.82 36.46 115.02 36.74 115.02 36.61C115.02 36.48 115.02 36.49 115.02 36.29C115.02 36.09 114.84 36.11 114.78 36.04C114.72 35.97 114.84 35.8 114.84 35.8C115.018 35.7918 115.195 35.7718 115.37 35.74C115.76 35.74 115.6 35.94 115.85 35.95C116.1 35.96 115.85 35.95 115.92 35.69C115.99 35.43 115.8 35.39 115.87 35.22C115.94 35.05 116.27 35.31 116.19 35.09C116.11 34.87 116.33 34.93 116.25 34.84C116.17 34.75 116.01 34.74 115.99 34.58C115.97 34.42 115.71 34.74 115.47 34.58C115.23 34.42 115.3 34.58 115.22 34.8C115.207 34.8502 115.184 34.8969 115.151 34.9369C115.118 34.9768 115.076 35.0089 115.029 35.0309C114.983 35.0529 114.931 35.0643 114.88 35.0641C114.828 35.0639 114.777 35.0523 114.73 35.03C114.46 35.03 114.73 34.88 114.88 34.8C115.03 34.72 114.88 34.64 114.63 34.52C114.38 34.4 114.09 34.58 113.63 34.39C113.17 34.2 113.63 34.25 113.85 34.25C114.07 34.25 114.07 34.08 114.33 33.9C114.59 33.72 114.92 34.22 114.92 34.22C114.959 34.1719 114.98 34.1119 114.98 34.05C114.98 33.9881 114.959 33.9281 114.92 33.88C114.894 33.8105 114.854 33.7471 114.802 33.6937C114.751 33.6404 114.689 33.5983 114.62 33.57C114.47 33.48 114.53 33.21 114.55 33C114.54 32.8638 114.476 32.7371 114.373 32.6473C114.27 32.5574 114.136 32.5117 114 32.52C113.87 32.52 114 32.14 113.7 32.2C113.4 32.26 113.46 32.04 113.29 31.95C113.12 31.86 113.01 31.95 112.67 32.19C112.33 32.43 112.5 32.26 112.3 32.14C112.1 32.02 112.15 32.21 112.02 32.57C111.89 32.93 111.75 32.65 111.72 32.8C111.69 32.95 111.38 33.31 111.23 33.23C111.08 33.15 110.6 32.97 110.5 32.74C110.4 32.51 110.91 32.89 111.14 32.91C111.37 32.93 111.26 32.66 111.21 32.41C111.16 32.16 111.21 32.41 111.21 32.23C111.298 32.0586 111.365 31.8773 111.41 31.69C111.51 31.28 111.01 31.4 110.99 31.33C110.97 31.26 110.9 31.13 110.87 31.01C110.84 30.89 111.09 30.91 111.27 30.91C111.45 30.91 111.41 30.91 111.73 30.66C112.05 30.41 112 30.75 112.2 30.92C112.4 31.09 112.41 30.92 112.65 30.83C112.89 30.74 112.54 30.62 112.48 30.42C112.42 30.22 112.79 30.08 112.97 29.92C112.999 29.8775 113.015 29.8278 113.016 29.7765C113.018 29.7253 113.005 29.6747 112.978 29.6306C112.952 29.5866 112.914 29.5509 112.868 29.5277C112.822 29.5046 112.771 29.495 112.72 29.5C112.49 29.55 112.45 29.5 112.46 29.31C112.47 29.12 112.11 29.31 112.33 28.99C112.33 28.93 112.19 28.88 112.02 28.85C111.85 28.82 111.88 28.61 111.78 28.42C111.68 28.23 111.49 28.57 111.17 28.61C110.85 28.65 110.98 28.3 110.98 27.98C110.98 27.66 110.73 27.83 110.68 27.98C110.63 28.13 110.3 28.03 110.17 28.03C110.04 28.03 109.96 28.15 109.89 28.28C109.798 28.3624 109.726 28.4651 109.68 28.58C109.56 28.82 109.79 28.66 110.08 28.66C110.37 28.66 110.16 28.8 109.94 28.95C109.72 29.1 109.51 28.95 109.21 28.95C109.111 28.9311 109.009 28.9311 108.91 28.95C108.79 28.95 108.74 28.95 108.65 28.71C108.56 28.47 108.55 28.76 108.44 29.06C108.33 29.36 108.29 29.06 107.98 29.06C107.924 29.0451 107.866 29.0416 107.809 29.0498C107.751 29.0579 107.696 29.0775 107.647 29.1074C107.598 29.1373 107.555 29.1768 107.521 29.2236C107.487 29.2705 107.463 29.3237 107.45 29.38C107.45 29.47 107.63 29.52 107.73 29.69C107.785 29.8021 107.868 29.8984 107.97 29.97C108.1 30.09 108.15 30.09 108.15 30.22C108.15 30.35 108.15 30.37 108.42 30.6C108.69 30.83 108.48 30.77 108.42 30.91H108.56L108.62 30.96C108.62 30.96 108.62 30.96 108.62 30.88C108.62 30.8 108.62 30.75 108.72 30.75H108.79C108.792 30.7803 108.787 30.8107 108.774 30.8385C108.762 30.8664 108.744 30.8909 108.72 30.91C108.72 30.91 108.79 30.99 108.84 31.02C108.89 31.05 108.84 30.95 108.84 30.91V30.8H108.95C108.95 30.8 108.95 30.8 109.01 30.8C109.015 30.8432 109.015 30.8868 109.01 30.93C108.95 31.07 108.9 31.07 108.84 31.08H108.72V31.19C108.72 31.19 108.72 31.29 108.72 31.32H108.66C108.66 31.32 108.66 31.27 108.66 31.21C108.66 31.15 108.66 31.16 108.66 31.15C108.66 31.14 108.56 31.26 108.5 31.26C108.491 31.2239 108.491 31.1861 108.5 31.15C108.5 31.06 108.5 31.03 108.5 31.02C108.5 31.01 108.36 30.95 108.36 30.88C108.353 30.9062 108.353 30.9338 108.36 30.96C108.26 31.23 108.22 31.06 108.01 31.09C107.8 31.12 107.67 31.09 107.59 30.83C107.51 30.57 107.74 30.55 107.74 30.23C107.74 29.91 107.61 30.05 107.4 30.03C107.19 30.01 107.06 29.79 106.97 29.83C106.883 29.9777 106.825 30.1406 106.8 30.31C106.74 30.58 106.65 30.48 106.32 30.31C105.99 30.14 106.18 30.05 105.95 30.22C105.72 30.39 105.73 30.31 105.73 30.45C105.73 30.59 105.78 30.55 105.73 30.72C105.68 30.89 105.56 30.91 105.33 30.93C105.1 30.95 105.25 30.99 105.41 31.07C105.57 31.15 105.77 31.28 105.75 31.51C105.73 31.74 105.51 31.6 105.16 31.57C104.81 31.54 105.03 31.45 104.84 31.32C104.65 31.19 104.64 31.16 104.69 30.83C104.74 30.5 104.96 30.72 105.07 30.6C105.18 30.48 104.99 30.43 104.96 30.13C104.93 29.83 104.96 29.74 104.82 29.61C104.68 29.48 104.59 29.61 104.52 29.34C104.45 29.07 104.42 29.1 104.37 29.27C104.32 29.44 104.22 29.46 104.05 29.67C103.884 29.8716 103.671 30.0296 103.43 30.13C103.15 30.28 102.98 30.02 102.89 29.92C102.8 29.82 103.06 29.83 103.14 29.76C103.22 29.69 103.04 29.63 103.04 29.48C103.04 29.415 103.054 29.3508 103.082 29.2921C103.11 29.2333 103.15 29.1813 103.2 29.14C103.33 29.01 103.61 29.14 103.76 29.14C103.91 29.14 103.65 28.92 103.63 28.66C103.608 28.4603 103.539 28.2685 103.43 28.1C103.36 27.9 103.28 27.71 103.26 27.62C103.24 27.53 103.48 27.62 103.67 27.62C103.86 27.62 103.73 27.2 103.92 27.02C104.11 26.84 103.92 26.89 103.8 26.89C103.777 26.8888 103.755 26.8804 103.737 26.8661C103.719 26.8517 103.706 26.8321 103.7 26.81C104.32 26.81 105.2 26.81 106.97 26.87C126.83 27 130.8 41 130.78 49.28C130.76 63.34 124.16 72.93 109.48 72.91V72.88ZM109.12 31.6C109.19 31.6 109.33 31.6 109.21 31.68C109.182 31.6611 109.149 31.651 109.115 31.651C109.081 31.651 109.048 31.6611 109.02 31.68C108.88 31.7 109 31.61 109.12 31.63V31.6ZM109.94 30.21C109.94 30.29 109.85 30.48 109.85 30.3C109.85 30.12 109.89 30.13 109.94 30.24V30.21ZM109.94 52.13C109.974 52.1499 110.001 52.1799 110.017 52.2157C110.033 52.2515 110.038 52.2915 110.03 52.33C110.05 52.3 110 52.24 110 52.16L109.94 52.13ZM110.87 36.72C110.73 36.72 110.87 36.52 110.67 36.5C110.87 36.4 110.67 36.07 110.9 36.13C111.13 36.19 111.06 36.13 111 36.33C111.16 36.53 111.22 36.78 110.91 36.75L110.87 36.72ZM112.87 44.72H112.77C112.786 44.7128 112.803 44.7091 112.82 44.7091C112.837 44.7091 112.854 44.7128 112.87 44.72C112.87 44.72 112.85 44.8 112.86 44.8L112.87 44.72ZM113.12 35.8C113.25 35.8 113.39 35.8 113.26 35.98C113.13 36.16 113.16 36.29 112.96 36.06C113.17 36 113 35.88 113.11 35.88L113.12 35.8ZM113.79 51.24C113.59 51.24 112.79 50.92 112.95 50.76C112.95 50.93 113.2 50.85 113.33 50.88C113.54 51.23 114 51.3 113.78 51.32L113.79 51.24ZM113.36 43.24C113.47 43.15 113.58 43.45 113.36 43.41C113.14 43.37 113.32 43.41 113.35 43.36L113.36 43.24ZM114.1 43.65C113.92 43.65 113.69 43.76 113.69 43.5C113.708 43.3395 113.782 43.1906 113.9 43.08C113.96 43.16 114.32 43.14 114.24 43.22C113.92 43.32 114.1 43.6 114.09 43.77L114.1 43.65ZM113.95 50.14C114.1 50.14 114.48 50.85 114.04 50.75C113.97 50.69 114.04 50.6 114.04 50.54C114.1 50 113.43 50.91 113.47 50.54C113.51 50.38 113.88 50.54 114 50.26L113.95 50.14ZM114.95 57.47C115.03 57.47 115.1 57.67 115.11 57.75C115.12 57.83 114.87 57.75 114.78 57.83C114.69 57.91 114.69 57.77 114.72 57.69C114.75 57.61 115 57.76 115 57.59L114.95 57.47ZM114.93 50C115.02 50 115.14 50.13 115.13 50.22C115.12 50.31 114.9 50 114.93 50ZM114.79 50.41C114.79 50.52 114.72 50.52 114.79 50.36V50.41ZM114.73 43.89C114.82 43.89 114.82 43.99 114.84 44.05C114.86 44.11 114.44 43.85 114.73 43.84V43.89ZM114.73 51.4C114.67 51.46 114.6 51.34 114.59 51.29C114.58 51.24 114.72 51.28 114.7 51.35L114.73 51.4ZM114.73 51.95C114.95 52.03 114.63 52.19 114.59 52.3C114.55 52.41 114.38 52.3 114.27 52.3C114.16 52.3 114.08 52.15 114.2 52.17C114.32 52.19 114.39 52.04 114.51 52.08C114.63 52.12 114.58 51.89 114.69 51.9L114.73 51.95ZM114.38 59.54C114.38 59.79 114.22 59.54 114.25 59.48C114.28 59.42 114.36 59.38 114.34 59.49L114.38 59.54ZM113.92 56.77C113.92 56.77 113.77 56.69 113.85 56.68C113.93 56.67 113.9 56.69 113.88 56.72L113.92 56.77ZM113.61 34.77C113.61 34.77 113.55 34.67 113.54 34.62C113.53 34.57 113.6 34.61 113.57 34.67L113.61 34.77ZM113.54 52.24C113.28 52.24 113.03 51.84 112.94 51.58C113.11 51.54 113.34 51.93 113.5 52.14L113.54 52.24ZM113.04 43.77C113.04 43.77 113.04 43.91 112.96 43.83C112.88 43.75 113 43.49 113 43.67L113.04 43.77ZM112.96 35.98C112.87 35.98 112.96 35.92 112.96 35.91C112.96 35.9 113 35.89 112.92 35.88L112.96 35.98ZM112.77 44.98C112.77 44.98 112.74 44.85 112.73 44.86L112.77 44.98ZM112.77 36.06C112.77 36.06 112.81 35.94 112.75 35.94L112.77 36.06ZM113.19 50.41C113.28 50.41 113 50.84 112.96 50.8C112.81 50.42 112.4 50.68 112.37 50.94C112.34 51.2 112.11 50.94 112.06 50.85C112.01 50.76 112.21 50.71 112.14 50.54C112.488 50.4792 112.832 50.3956 113.17 50.29L113.19 50.41ZM112.45 57.81C112.31 58.03 112.35 57.81 112.39 57.72C112.43 57.63 112.51 57.61 112.43 57.69L112.45 57.81ZM112.26 44.27C111.75 44.32 112.26 43.65 112.56 44.33C112.47 44.42 112.36 44.13 112.24 44.15L112.26 44.27ZM111.59 52.06C111.06 51.99 111.7 51.86 111.81 51.79C111.92 51.72 111.91 51.79 111.97 51.79C112.24 51.75 111.7 52 111.57 51.94L111.59 52.06ZM111.9 52.98C111.9 53.04 111.77 53.17 111.69 53.14C111.61 53.11 111.58 52.92 111.69 52.94C111.8 52.96 111.87 52.78 111.88 52.86L111.9 52.98ZM111.46 59.04C111.71 59.04 111.74 58.75 111.98 58.79C112.61 58.79 112.28 59.29 112.75 59.4C113.03 59.4 113.41 59.58 112.91 59.65C112.63 59.65 112.48 59.39 112.2 59.4C111.92 59.41 111.3 59.4 110.99 59.21C111.06 58.91 111.27 58.92 111.44 58.92L111.46 59.04ZM110.77 52.69C110.83 52.69 110.69 52.85 110.77 52.95C110.85 53.05 110.71 53.07 110.67 53.12C110.44 53.35 110.91 53.4 110.98 53.56C110.83 54.05 110.21 53.2 110.22 52.96C110.6 53.14 110.46 52.58 110.11 52.52C110.5 52.47 110.4 52.31 110.75 52.57L110.77 52.69ZM115.97 57.4C116.15 57.51 115.8 57.76 116.3 57.85C116.43 58.06 116.22 57.92 116.1 57.91C115.98 57.9 115.61 57.96 115.67 57.65C115.73 57.34 115.86 57.72 116 57.28L115.97 57.4ZM117.53 55.39C117.47 55.39 117.47 55.22 117.47 55.17C117.47 55.12 117.74 55.3 117.53 55.35V55.39ZM117.91 56.3C117.91 56.41 117.67 56.39 117.59 56.49C117.51 56.59 117.51 56.68 117.49 56.56C117.57 56.17 117.59 55.76 117.91 56.26V56.3ZM117.54 50.74C117.44 50.88 117.33 50.74 117.22 50.84C117.11 50.94 116.82 51.13 116.67 51.31C116.55 51.31 116.54 51.12 116.4 51.14C116.26 51.16 116.4 50.93 116.4 50.84C116.4 50.75 116.22 50.42 116.4 50.21C116.56 50.29 116.74 50.38 116.87 50.16C117.2 50.16 117.22 49.77 117.41 50.25C117.59 50.5 117.66 50 117.54 50.7V50.74ZM116.61 56.93C117.45 57.22 116.81 56.73 117.38 57C117.38 57 117.47 57.1 117.38 57.13C117.29 57.16 117.06 57.34 116.92 57.39C117.23 57 116.08 57 116.61 56.89V56.93ZM116.53 58.4C116.61 58.4 116.75 58.34 116.79 58.26C116.91 58.35 116.45 58.51 116.53 58.36V58.4ZM116.4 52.67C116.4 52.6 116.54 52.67 116.52 52.67C116.5 52.67 116.44 52.66 116.4 52.63V52.67ZM116.2 58.83C116.2 58.83 116.2 58.72 116.2 58.7C116.2 58.68 116.24 58.79 116.2 58.79V58.83ZM115.91 58.48C115.91 58.38 115.97 58.33 116.04 58.42C116.11 58.51 115.88 58.64 115.91 58.44V58.48ZM118.8 55.34C118.88 55.34 118.8 55.48 118.8 55.47C118.8 55.46 118.77 55.32 118.8 55.3V55.34ZM114.8 35.71C114.74 35.71 114.61 35.86 114.64 35.71C114.67 35.56 114.79 35.58 114.78 35.67L114.8 35.71Z" fill="white"/>
<path d="M68.51 84.82C67.5579 84.7911 66.6099 84.9568 65.724 85.307C64.8382 85.6572 64.0331 86.1846 63.3582 86.8567C62.6832 87.5289 62.1525 88.3317 61.7986 89.2161C61.4447 90.1005 61.2751 91.0478 61.3 92C61.2903 92.9309 61.4719 93.8539 61.8335 94.7118C62.1951 95.5697 62.729 96.3442 63.4021 96.9873C64.0752 97.6304 64.8733 98.1285 65.7467 98.4506C66.6202 98.7727 67.5505 98.9121 68.48 98.86C69.403 98.8735 70.3193 98.7016 71.1746 98.3546C72.03 98.0076 72.8071 97.4925 73.4598 96.8398C74.1125 96.1871 74.6276 95.41 74.9746 94.5547C75.3216 93.6993 75.4935 92.783 75.48 91.86C75.5328 90.9276 75.3893 89.9946 75.0586 89.1212C74.728 88.2478 74.2176 87.4536 73.5606 86.79C72.9035 86.1264 72.1145 85.6081 71.2445 85.2687C70.3744 84.9294 69.4428 84.7765 68.51 84.82ZM68.76 98.19C64.76 98.19 63.32 94.3 63.33 91.31C63.33 86.89 66.06 85.44 68.16 85.44C72.02 85.44 73.49 89.07 73.49 92.44C73.48 96.37 71.18 98.19 68.76 98.19ZM89.76 85.13C89.8241 85.1954 89.86 85.2834 89.86 85.375C89.86 85.4666 89.8241 85.5546 89.76 85.62H89.27C89.0761 85.6148 88.8839 85.6566 88.7097 85.742C88.5356 85.8273 88.3847 85.9536 88.27 86.11C88.0327 87.4764 87.9422 88.8643 88 90.25V92.56C88.1204 94.2804 87.6123 95.986 86.57 97.36C86.0569 97.8526 85.4497 98.2367 84.7848 98.4893C84.1198 98.7419 83.4108 98.8577 82.7 98.83C81.3732 98.9042 80.0629 98.5076 79 97.71C77.91 96.84 77.41 95.36 77.41 92.94V88.18C77.41 86.07 77.41 85.74 76.22 85.63H75.69C75.57 85.56 75.6 85.2 75.69 85.15C76.69 85.15 77.39 85.21 78.2 85.21C79.01 85.21 79.7 85.21 80.69 85.15C80.8 85.21 80.85 85.57 80.69 85.64H80.2C79.04 85.74 79 86.08 79 88.19V92.55C79 95.81 80 97.95 83.09 97.96C86.18 97.97 87.15 95.65 87.15 92.58V90.25C87.2236 88.8424 87.0957 87.4314 86.77 86.06C86.6455 85.92 86.4907 85.8103 86.3174 85.7393C86.1441 85.6682 85.9569 85.6377 85.77 85.65H85.27C85.2059 85.5846 85.17 85.4966 85.17 85.405C85.17 85.3134 85.2059 85.2254 85.27 85.16C86.04 85.16 86.79 85.22 87.57 85.23C88.35 85.24 89.05 85.17 89.77 85.13H89.76ZM98.24 91.31C98.01 91.31 97.84 91.21 97.85 91.01C98.4387 90.8183 98.9537 90.4492 99.3243 89.9533C99.6949 89.4573 99.903 88.8589 99.92 88.24C99.9428 87.7144 99.811 87.1936 99.5408 86.7421C99.2706 86.2907 98.874 85.9283 98.4 85.7C97.3213 85.2667 96.1607 85.0755 95 85.14C93.12 85.14 91.75 85.14 90.65 85.3C90.6107 85.3288 90.5788 85.3664 90.5568 85.4099C90.5348 85.4533 90.5233 85.5013 90.5233 85.55C90.5233 85.5987 90.5348 85.6467 90.5568 85.6901C90.5788 85.7336 90.6107 85.7712 90.65 85.8H91.3C92.21 85.89 92.3 86.28 92.3 87.8V95.5C92.3 97.61 92.3 97.84 91.2 98.03H90.83C90.71 98.15 90.74 98.49 90.83 98.52C91.58 98.52 92.26 98.52 93.16 98.52C94.06 98.52 95 98.52 95.58 98.52C99.23 98.52 100.96 96.98 100.97 94.63C100.973 93.8467 100.703 93.0869 100.207 92.481C99.7105 91.8751 99.0185 91.4611 98.25 91.31H98.24ZM93.91 86.41C93.91 86.04 94 85.94 94.2 85.88C94.5017 85.7918 94.816 85.7546 95.13 85.77C96.68 85.77 98.13 86.51 98.13 88.49C98.13 90.47 97 91 95 91.09C94 91.09 94 91.09 94 90.51L93.91 86.41ZM95.91 97.98C95.6178 98.0082 95.323 97.9718 95.0465 97.8733C94.77 97.7748 94.5185 97.6166 94.31 97.41C93.9628 96.7247 93.8171 95.9548 93.89 95.19V92.19C93.89 91.77 93.98 91.66 95.06 91.66C98.29 91.66 99.06 93.52 99.06 95.12C99.1 97.17 97.72 98 95.93 98L95.91 97.98ZM112.82 95.8C112.61 96.7584 112.322 97.6982 111.96 98.61C110.96 98.61 108.96 98.61 106.96 98.61H105.1C104.24 98.61 103.6 98.61 102.48 98.61C102.36 98.61 102.32 98.23 102.48 98.11H103.1C104.26 98.01 104.29 97.69 104.3 95.58V88.24C104.3 86.12 104.3 85.8 103 85.7H102.49C102.434 85.6268 102.404 85.5372 102.404 85.445C102.404 85.3528 102.434 85.2632 102.49 85.19C103.62 85.19 104.31 85.25 105.11 85.26C105.91 85.27 106.6 85.26 107.6 85.2C107.656 85.2732 107.686 85.3628 107.686 85.455C107.686 85.5472 107.656 85.6368 107.6 85.71H107.1C105.92 85.8 105.88 86.12 105.88 88.25V95.25C105.88 96.53 105.94 97.05 106.3 97.43C106.51 97.65 106.9 97.92 108.5 97.92C110.1 97.92 110.65 97.82 110.97 97.64C111.604 97.1204 112.071 96.4244 112.31 95.64C112.45 95.57 112.84 95.66 112.84 95.8H112.82ZM124.44 95.8C124.223 96.7559 123.918 97.6898 123.53 98.59C121.71 98.59 119.91 98.59 118.11 98.59H116.29C115.42 98.59 114.74 98.59 113.54 98.59C113.42 98.59 113.37 98.21 113.54 98.09L114.2 98.04C115.35 97.95 115.46 97.62 115.47 95.51V88.26C115.47 86.16 115.47 85.86 114.24 85.72H113.91C113.79 85.63 113.85 85.27 113.97 85.21C114.83 85.21 115.52 85.27 116.34 85.27H120.15C121.44 85.27 122.63 85.27 122.87 85.27C123.035 86.1621 123.142 87.064 123.19 87.97C123.117 88.026 123.027 88.0563 122.935 88.0563C122.843 88.0563 122.753 88.026 122.68 87.97C122.39 86.97 122.21 86.3 121.16 86.04C120.499 85.9324 119.829 85.8922 119.16 85.92H117.7C117.09 85.92 117.09 85.92 117.09 86.72V90.72C117.09 91.27 117.15 91.27 117.75 91.27H119C119.576 91.3004 120.154 91.2601 120.72 91.15C120.97 91.08 121.1 90.95 121.21 90.45L121.36 89.61C121.47 89.5 121.82 89.5 121.89 89.61C121.89 90.09 121.81 90.89 121.81 91.61C121.81 92.33 121.88 93.1 121.88 93.55C121.81 93.69 121.46 93.69 121.36 93.55L121.19 92.78C121.172 92.6016 121.103 92.4321 120.992 92.292C120.88 92.1518 120.73 92.047 120.56 91.99C120.041 91.94 119.518 91.9434 119 92H117.83C117.23 92 117.16 92 117.16 92.56V95.42C117.16 96.42 117.22 97.17 117.54 97.51C117.86 97.85 118.19 98 119.99 98C120.86 98.0941 121.74 97.9846 122.56 97.68C123.21 97.1516 123.71 96.462 124.01 95.68C124.092 95.6492 124.182 95.6484 124.264 95.6777C124.347 95.707 124.416 95.7645 124.46 95.84L124.44 95.8ZM54.83 83.34C53.1366 82.7896 51.3593 82.5425 49.58 82.61C47.58 82.61 45.58 82.69 43.58 82.8C43.5304 82.8304 43.4893 82.873 43.4609 82.9238C43.4324 82.9746 43.4175 83.0318 43.4175 83.09C43.4175 83.1482 43.4324 83.2054 43.4609 83.2562C43.4893 83.307 43.5304 83.3496 43.58 83.38L44.1 83.48C45.1 83.62 45.23 84.11 45.23 85.77V94.85C45.23 97.37 45.17 97.64 43.79 97.85L43.24 97.91C43.1 98.06 43.14 98.43 43.24 98.49C44.36 98.49 45.24 98.49 46.24 98.49C47.08 98.49 48.6 98.68 50.13 98.68C51.9784 98.7401 53.8138 98.3525 55.48 97.55C56.7704 96.8691 57.8459 95.8424 58.5859 94.5849C59.3259 93.3274 59.7013 91.8887 59.67 90.43C59.7395 88.8836 59.3052 87.3563 58.4324 86.0778C57.5597 84.7993 56.2955 83.8386 54.83 83.34ZM50.55 97.9C49.04 97.9 48.13 97.65 47.62 96.9C47.1962 96.107 47.0285 95.2022 47.14 94.31V85.51C47.14 84.43 47.2 83.83 47.39 83.68C48.1426 83.3974 48.9493 83.288 49.75 83.36C56.01 83.36 57.28 87.81 57.27 90.44C57.27 94.87 55.19 97.91 50.55 97.9ZM128.08 82.83H139.85C139.78 83.83 139.68 85.08 139.67 85.83C139.67 86.04 139.18 86 139.06 85.83C138.98 85.23 138.83 84.35 138.46 84.08C137.61 83.6187 136.643 83.4171 135.68 83.5H134C133.28 83.5 133.3 83.5 133.3 84.31V94.92C133.3 97.43 133.3 97.8 134.73 97.92L135.5 97.98C135.64 98.06 135.58 98.5 135.5 98.56C134.14 98.56 133.32 98.5 132.36 98.5C131.4 98.5 130.57 98.5 129.06 98.5C129.016 98.4644 128.981 98.4194 128.956 98.3684C128.932 98.3173 128.92 98.2615 128.92 98.205C128.92 98.1485 128.932 98.0927 128.956 98.0416C128.981 97.9906 129.016 97.9456 129.06 97.91H129.91C131.27 97.78 131.39 97.42 131.39 94.91V84.26C131.39 83.51 131.39 83.5 130.67 83.5H129.3C128.284 83.3933 127.259 83.5954 126.36 84.08C125.907 84.5556 125.565 85.1261 125.36 85.75C125.18 85.9 124.7 85.75 124.73 85.58C124.92 84.5 124.96 83.73 125.09 82.78C125.15 82.77 127 82.83 128.08 82.83ZM164.21 95.76C163.907 96.5353 163.416 97.2227 162.78 97.76C161.956 98.0651 161.073 98.1746 160.2 98.08C158.41 98.08 157.99 97.83 157.75 97.59C157.394 96.9552 157.257 96.2206 157.36 95.5V92.6C157.36 92.08 157.42 92.04 158.04 92.04H159.2C159.722 92.0189 160.245 92.0524 160.76 92.14C160.932 92.1935 161.084 92.2974 161.196 92.4382C161.309 92.5791 161.376 92.7504 161.39 92.93L161.57 93.7C161.64 93.7661 161.733 93.8029 161.83 93.8029C161.927 93.8029 162.02 93.7661 162.09 93.7C162.09 93.25 162.01 92.48 162.01 91.76C162.01 91.04 162.1 90.19 162.1 89.71C162.026 89.6516 161.934 89.6199 161.84 89.6199C161.746 89.6199 161.654 89.6516 161.58 89.71L161.41 90.54C161.31 91.04 161.18 91.18 160.93 91.25C160.36 91.3599 159.779 91.4002 159.2 91.37H158.04C157.43 91.37 157.36 91.37 157.36 90.82V86.74C157.36 85.97 157.36 85.94 157.98 85.94H159.43C160.099 85.9118 160.769 85.952 161.43 86.06C162.48 86.32 162.65 87.06 162.96 87.99C163.03 88.0486 163.119 88.0807 163.21 88.0807C163.301 88.0807 163.39 88.0486 163.46 87.99C163.405 87.0885 163.301 86.1905 163.15 85.3C162.89 85.3 161.71 85.3 160.41 85.3H156.63C155.78 85.3 155.1 85.3 154.24 85.24C154.177 85.3099 154.142 85.4008 154.142 85.495C154.142 85.5892 154.177 85.6801 154.24 85.75H154.57C155.75 85.89 155.78 86.19 155.78 88.29V95.57C155.78 97.68 155.67 98.04 154.52 98.13L153.73 98.21C153.239 98.2502 152.748 98.131 152.33 97.87C150.703 96.2928 149.333 94.4707 148.27 92.47C148.18 92.33 148.08 92.12 148.18 91.99C148.89 91.749 149.51 91.2992 149.96 90.6997C150.409 90.1001 150.667 89.3787 150.7 88.63C150.719 88.0487 150.568 87.4746 150.266 86.9775C149.964 86.4804 149.524 86.0817 149 85.83C147.936 85.366 146.778 85.1604 145.62 85.23C143.62 85.23 142.25 85.23 141.12 85.38C141.084 85.4119 141.055 85.4511 141.035 85.4951C141.015 85.5391 141.005 85.5868 141.005 85.635C141.005 85.6832 141.015 85.7309 141.035 85.7749C141.055 85.8189 141.084 85.8581 141.12 85.89L141.77 85.97C142.6 86.05 142.65 86.42 142.65 88.34V95.59C142.65 97.7 142.65 97.95 141.44 98.11H140.94C140.83 98.26 140.86 98.58 140.94 98.61C141.89 98.61 142.61 98.61 143.47 98.61C144.33 98.61 144.96 98.61 145.87 98.61C145.929 98.5399 145.961 98.4514 145.961 98.36C145.961 98.2686 145.929 98.1801 145.87 98.11H145.44C144.27 97.94 144.23 97.69 144.23 95.58V93C144.23 92.58 144.23 92.56 145.18 92.56C145.457 92.5175 145.741 92.5563 145.996 92.6717C146.252 92.787 146.469 92.974 146.62 93.21C147.25 94.11 148.07 95.51 148.62 96.21C150.05 98.21 151 98.76 152.73 98.76C153.124 98.7323 153.515 98.6754 153.9 98.59H156.6H158.42C160.2 98.59 162 98.59 163.83 98.59C164.205 97.6848 164.509 96.7521 164.74 95.8C164.671 95.7315 164.579 95.6898 164.482 95.6825C164.385 95.6752 164.289 95.7026 164.21 95.76ZM145.7 92C144.7 92 144.38 92 144.32 91.88C144.26 91.76 144.24 91.58 144.24 91.23V86.5C144.24 85.93 144.32 85.86 145.57 85.86C145.995 85.8268 146.422 85.8845 146.823 86.0293C147.224 86.1741 147.589 86.4027 147.895 86.6998C148.2 86.9969 148.439 87.3557 148.595 87.7523C148.751 88.149 148.821 88.5743 148.8 89C148.843 89.4631 148.775 89.9298 148.601 90.3612C148.427 90.7926 148.152 91.1762 147.8 91.48C147.174 91.874 146.438 92.0563 145.7 92ZM176.89 95.93C176.667 96.883 176.366 97.8161 175.99 98.72C174.17 98.72 172.35 98.72 170.56 98.72H168.75C167.88 98.72 167.19 98.72 166 98.72C165.88 98.72 165.84 98.34 165.94 98.22H166.63C167.78 98.13 167.88 97.8 167.89 95.69V88.35C167.89 86.25 167.89 85.95 166.66 85.81H166.32C166.264 85.7368 166.234 85.6472 166.234 85.555C166.234 85.4628 166.264 85.3732 166.32 85.3C167.2 85.3 167.88 85.36 168.71 85.36H172.5C173.81 85.36 174.99 85.36 175.24 85.36C175.4 86.2496 175.507 87.1478 175.56 88.05C175.487 88.1076 175.398 88.1389 175.305 88.1389C175.212 88.1389 175.123 88.1076 175.05 88.05C174.74 87.05 174.58 86.38 173.52 86.12C172.859 86.0107 172.189 85.9705 171.52 86H170.07C169.45 86 169.45 86 169.45 86.8V90.8C169.45 91.35 169.51 91.35 170.12 91.35H171.29C171.866 91.3804 172.444 91.3401 173.01 91.23C173.25 91.16 173.39 91.03 173.5 90.52L173.66 89.69C173.734 89.6316 173.826 89.5998 173.92 89.5998C174.014 89.5998 174.106 89.6316 174.18 89.69C174.18 90.17 174.09 90.97 174.09 91.69C174.09 92.41 174.17 93.18 174.17 93.63C174.1 93.6961 174.007 93.7329 173.91 93.7329C173.813 93.7329 173.72 93.6961 173.65 93.63L173.47 92.86C173.454 92.6824 173.387 92.5132 173.277 92.3729C173.167 92.2327 173.019 92.1274 172.85 92.07C172.335 91.9833 171.812 91.9498 171.29 91.97H170.12C169.51 91.97 169.44 91.97 169.44 92.53V95.39C169.44 96.39 169.5 97.14 169.82 97.48C170.14 97.82 170.48 97.97 172.26 97.97C173.136 98.0665 174.023 97.957 174.85 97.65C175.483 97.128 175.977 96.4583 176.29 95.7C176.339 95.6553 176.4 95.6251 176.466 95.6128C176.531 95.6005 176.599 95.6067 176.661 95.6305C176.723 95.6543 176.777 95.6949 176.818 95.7478C176.858 95.8007 176.883 95.8638 176.89 95.93Z" fill="white"/>
<path d="M84.39 108.71C83.5933 108.737 82.8346 109.057 82.26 109.61V105.87H80V106.29L80.58 106.38V115L80 115.08V115.51H82.31V115.16C82.8048 115.486 83.3874 115.654 83.98 115.64C85.98 115.64 87.13 114.33 87.13 112.07C87.08 110.06 86 108.71 84.39 108.71ZM83.73 115.01C83.1915 114.991 82.6744 114.794 82.26 114.45V110.17C82.6228 109.981 83.0217 109.872 83.43 109.85C84.56 109.85 85.24 110.85 85.24 112.37C85.24 113.89 84.68 115 83.73 115V115.01ZM92.35 108.84H94.28V109.31L93.74 109.41L91.06 115.89C90.45 117.38 89.9 118.61 88.64 118.61C88.2628 118.612 87.8867 118.569 87.52 118.48V117H87.91L88.16 117.58C88.3163 117.702 88.512 117.763 88.71 117.75C89.51 117.75 90.03 116.56 90.35 115.75L90.43 115.58L87.72 109.37L87.2 109.26V108.79H90.2V109.27L89.62 109.39L91.36 113.46L92.98 109.36L92.39 109.26L92.35 108.84ZM103.35 106.15H106.5V106.62L105.87 106.7V114.91L106.5 115V115.48H103.35V115L104.03 114.91V111.18H100.03V114.91L100.66 115V115.48H97.56V115L98.18 114.91V106.7L97.56 106.62V106.15H100.66V106.62L100.03 106.7V110.21H104.03V106.7L103.35 106.62V106.15ZM110.17 114.97L110.77 115.05V115.48H107.87V115.05L108.46 114.97V109.35L107.87 109.27V108.84H110.17V114.97ZM108.37 106.79C108.362 106.654 108.382 106.517 108.428 106.389C108.475 106.261 108.547 106.143 108.641 106.044C108.734 105.944 108.848 105.865 108.973 105.811C109.098 105.757 109.233 105.73 109.37 105.73C109.635 105.73 109.89 105.835 110.077 106.023C110.265 106.21 110.37 106.465 110.37 106.73C110.383 106.869 110.366 107.008 110.321 107.14C110.277 107.272 110.205 107.393 110.111 107.496C110.017 107.599 109.902 107.68 109.775 107.736C109.647 107.792 109.509 107.821 109.37 107.82C109.236 107.82 109.104 107.793 108.98 107.741C108.857 107.689 108.745 107.613 108.652 107.517C108.559 107.421 108.486 107.307 108.437 107.182C108.389 107.057 108.366 106.924 108.37 106.79ZM114.37 114.97L114.97 115.05V115.48H112V115.05L112.58 114.97V106.38L112 106.29V105.87H114.3L114.37 114.97ZM119.62 114.76C119.928 114.774 120.237 114.75 120.54 114.69V115.14C119.86 115.402 119.139 115.544 118.41 115.56C117.08 115.56 116.77 114.96 116.77 113.8V109.46H115.55V108.84H116.81V107.46L118.49 106.95V108.84H120V109.46H118.44V113.46C118.45 114.43 118.66 114.76 119.58 114.76H119.62ZM124.39 108.66C123.914 108.629 123.438 108.7 122.992 108.868C122.546 109.036 122.141 109.297 121.804 109.634C121.467 109.971 121.206 110.376 121.038 110.822C120.87 111.268 120.799 111.744 120.83 112.22C120.83 114.77 122.17 115.68 124.28 115.68C124.749 115.718 125.221 115.655 125.663 115.496C126.106 115.336 126.51 115.085 126.848 114.757C127.185 114.43 127.449 114.034 127.622 113.597C127.795 113.159 127.873 112.69 127.85 112.22C127.904 111.745 127.852 111.263 127.696 110.81C127.54 110.358 127.285 109.946 126.95 109.604C126.614 109.263 126.207 109.001 125.757 108.838C125.307 108.674 124.826 108.614 124.35 108.66H124.39ZM124.32 115.17C123.32 115.17 122.72 114.29 122.72 112.17C122.72 110.05 123.35 109.17 124.32 109.17C125.29 109.17 125.95 110.09 125.95 112.17C125.95 114.25 125.33 115.17 124.28 115.17H124.32ZM135.52 114.97L136.11 115.05V115.48H133.21V115.05L133.79 114.97V111.19C133.79 110.19 133.41 109.68 132.62 109.68C132.123 109.739 131.65 109.929 131.25 110.23V115L131.84 115.08V115.51H128.92V115.08L129.52 115V109.42L128.92 109.34V108.87H131.25V109.79C131.892 109.16 132.742 108.787 133.64 108.74C134.94 108.74 135.52 109.51 135.52 111.01V114.97ZM136.08 106.12H137.91V106.52H137.76V106.31H137.26V108H137.47V108.14H136.6V108H136.82V106.36H136.32V106.57H136L136.08 106.12ZM140.39 106.29V108H140.57V108.14H139.77V108H139.95V106.52L139.22 108.17H139.14L138.44 106.55V108H138.63V108.14H138V108H138.18V106.34H138V106.21H138.71L139.27 107.51L139.84 106.21H140.52V106.34L140.39 106.29Z" fill="white"/>
</svg>
