<svg width="215" height="218" viewBox="0 0 215 218" fill="none" xmlns="http://www.w3.org/2000/svg">
<path d="M59.6467 46.1111C60.2 54.1706 61.5833 62.0489 63.7967 69.565L52.73 80.4317C48.9489 69.565 46.5511 58.0644 45.7211 46.1111H59.6467ZM150.578 154.959C158.417 157.132 166.44 158.491 174.556 159.034V172.527C162.382 171.712 150.67 169.357 139.511 165.735L150.578 154.959ZM68.5 28H36.2222C31.15 28 27 32.075 27 37.0556C27 122.087 97.1811 191 183.778 191C188.85 191 193 186.925 193 181.944V150.341C193 145.36 188.85 141.285 183.778 141.285C172.342 141.285 161.183 139.474 150.854 136.123C149.932 135.761 148.918 135.671 147.996 135.671C145.598 135.671 143.292 136.576 141.448 138.297L121.159 158.219C95.06 145.088 73.6644 124.17 60.3844 98.5428L80.6733 78.6206C83.2556 76.085 83.9933 72.5533 82.9789 69.3839C79.5667 59.2417 77.7222 48.375 77.7222 37.0556C77.7222 32.075 73.5722 28 68.5 28Z" fill="white"/>
</svg>
